<svg id="Capa_1" data-name="Capa 1" xmlns="http://www.w3.org/2000/svg" viewBox="0 0 462.74 511.53"><defs><style>.cls-1{fill:#0f225c;}.cls-2{fill:#4d64a8;}.cls-3{fill:salmon;}</style></defs><path class="cls-1" d="M218.9,434.88V416.8a1.48,1.48,0,0,0,0-.21c-.32-14-.67-28.46-4.68-43.53-9.15-34.27-29-53.2-66.34-63.28a14.39,14.39,0,0,1-3.28-.94c-.78-.44-1.32-1.67-1.77-2.4l-23.53-38.2a31.1,31.1,0,0,0-19.39-14l-5.64-72.86c-1.33-17-14.43-29.84-30.47-29.87h-.06c-16.26,0-29.37,12.84-30.52,29.89l-3.22,48a9,9,0,0,0,18,1.21l3.23-48c.5-7.43,5.86-13,12.48-13h0c7.51,0,12,6.66,12.48,13.2l5.61,72.49A32.14,32.14,0,0,0,76.22,258,31.38,31.38,0,0,0,66,301L104.12,363a9,9,0,0,0,15.39-9.48L81.37,291.57a13.21,13.21,0,0,1,14.32-19.79,13.07,13.07,0,0,1,8.2,5.93l23.54,38.2c4.71,7.68,8.23,9.3,15.12,11.16l.6.16c35.88,9.68,47.37,27.19,53.6,50.48,3.45,13,3.77,26.3,4.07,39.2v16.88H119.08v-1.36c0-27.94-27.55-51.49-45.79-67.08-2.73-2.33-5.31-4.54-7.38-6.42l-.35-.31c-16.9-15.33-23.9-21.67-23-47.37a9,9,0,0,0-18.06-.66c-1.25,34.1,10.73,45,28.87,61.42l.36.32c2.27,2.06,4.94,4.34,7.78,6.76C77.26,392.53,101,412.82,101,432.43v2.45a22.73,22.73,0,0,0-15.73,21.6v32.83A22.72,22.72,0,0,0,108,512h104a22.72,22.72,0,0,0,22.7-22.69V456.48a22.74,22.74,0,0,0-15.73-21.6Zm-2.35,54.43a4.62,4.62,0,0,1-4.62,4.61H108a4.68,4.68,0,0,1-4.62-4.61V456.48a4.69,4.69,0,0,1,4.62-4.62h104a4.68,4.68,0,0,1,4.62,4.62Z" transform="translate(-24.45 -0.47)"/><path class="cls-1" d="M487.1,310.59c0-.09,0-.18,0-.27l-8.66-129c-1.15-17.05-14.26-29.89-30.52-29.89h-.07c-16,0-29.13,12.88-30.46,29.88l-5.64,72.85a31,31,0,0,0-19.38,14l-23.55,38.22c-.45.73-1,1.95-1.75,2.39a14.54,14.54,0,0,1-3.28.94c-37.35,10.08-57.2,29-66.35,63.28-4,15.07-4.35,29.54-4.68,43.53a1.48,1.48,0,0,0,0,.21v18.08A22.74,22.74,0,0,0,277,456.48v32.83A22.72,22.72,0,0,0,299.71,512h104a22.72,22.72,0,0,0,22.69-22.69V456.48a22.73,22.73,0,0,0-15.73-21.6v-2.45c0-19.61,23.75-39.9,39.46-53.33,2.84-2.42,5.51-4.71,7.79-6.78l.35-.31c18.14-16.45,30.12-27.32,28.87-61.42ZM408.29,489.31a4.68,4.68,0,0,1-4.62,4.61h-104a4.67,4.67,0,0,1-4.62-4.61V456.48a4.68,4.68,0,0,1,4.62-4.62h104a4.69,4.69,0,0,1,4.62,4.62Zm37.8-130.69-.35.31c-2.08,1.88-4.66,4.09-7.39,6.42-18.23,15.59-45.79,39.14-45.79,67.08v1.36H310.82V416.91c.3-12.9.63-26.24,4.08-39.19,6.22-23.3,17.71-40.81,53.6-50.49l.59-.16c6.89-1.86,10.41-3.48,15.12-11.15l23.55-38.23a13.09,13.09,0,0,1,8.19-5.91,13.4,13.4,0,0,1,3.77-.35h.14a13,13,0,0,1,6.08,1.94,13.25,13.25,0,0,1,4.34,18.19l-38.15,61.93A9,9,0,0,0,407.52,363L445.67,301A31.36,31.36,0,0,0,435.42,258a31.8,31.8,0,0,0-5.63-2.74l5.62-72.48c.51-6.55,5-13.19,12.47-13.21h0c6.62,0,12,5.6,12.48,13L469,311.39c.91,25.58-6.09,31.93-23,47.23Z" transform="translate(-24.45 -0.47)"/><path class="cls-2" d="M136,250h39.9a80.27,80.27,0,0,0-1.54,15.63v14.29a9,9,0,0,0,9,9H328.25a9,9,0,0,0,9-9V265.62A81.05,81.05,0,0,0,335.75,250h39.92a9,9,0,0,0,9-9V226.66a81.69,81.69,0,0,0-37.06-68.19,56.42,56.42,0,1,0-91.82-65.41A56.43,56.43,0,1,0,164,158.47a81.71,81.71,0,0,0-37,68.19V241a9,9,0,0,0,9,9Zm183.21,20.88H192.43v-5.25a63.58,63.58,0,0,1,32.88-55.49,56.21,56.21,0,0,0,61,0,63.58,63.58,0,0,1,32.88,55.49v5.25Zm47.42-44.21v5.25H329.92a82.14,82.14,0,0,0-29.67-34.49,56.07,56.07,0,0,0,9.34-17.62,56.07,56.07,0,0,0,24.15-8.63,63.64,63.64,0,0,1,32.89,55.49ZM303.22,85.41a38.34,38.34,0,0,1,9,75.61,56.5,56.5,0,0,0-43.84-53.33A38.34,38.34,0,0,1,303.22,85.41Zm-47.4,38.93a38.36,38.36,0,1,1-38.36,38.34A38.4,38.4,0,0,1,255.82,124.34ZM208.43,85.41a38.33,38.33,0,0,1,34.85,22.27A56.51,56.51,0,0,0,199.43,161a38.34,38.34,0,0,1,9-75.61ZM145,226.66a63.61,63.61,0,0,1,32.87-55.49,56,56,0,0,0,24.14,8.63,56.28,56.28,0,0,0,9.34,17.62,82.08,82.08,0,0,0-29.67,34.49H145Z" transform="translate(-24.45 -0.47)"/><path class="cls-1" d="M36.29,279.49a9.05,9.05,0,1,0-9-9.06v.05A9,9,0,0,0,36.29,279.49Z" transform="translate(-24.45 -0.47)"/><path class="cls-3" d="M256.28.47a10.65,10.65,0,0,0-10.65,10.65v16a10.66,10.66,0,0,0,21.31,0V11.12A10.65,10.65,0,0,0,256.28.47Z" transform="translate(-24.45 -0.47)"/><path class="cls-3" d="M192,37.24,180.82,26.08a10.65,10.65,0,1,0-15.06,15.07l11.18,11.17A10.66,10.66,0,0,0,192,37.24Z" transform="translate(-24.45 -0.47)"/><path class="cls-3" d="M347.71,26.35a10.65,10.65,0,0,0-15.07,0l-11.09,11.1a10.65,10.65,0,0,0,15.07,15.06l11.09-11.1A10.66,10.66,0,0,0,347.71,26.35Z" transform="translate(-24.45 -0.47)"/></svg>