<svg id="Layer_1" data-name="Layer 1" xmlns="http://www.w3.org/2000/svg" viewBox="0 0 512.01 512"><defs><style>.cls-1,.cls-4{fill:#0f225c;}.cls-2{fill:#4d64a8;}.cls-3{fill:salmon;}.cls-4{opacity:0.61;}</style></defs><g id="Page-1"><g id="_031---Brain-Research" data-name="031---Brain-Research"><path id="Shape" class="cls-1" d="M470,338.57,312,391.22a25.57,25.57,0,0,1-8.09,1.31H299a39.24,39.24,0,0,0-3.18-33.61l-.76-1.25a51.45,51.45,0,0,0-43.91-24.87H206.51a69.62,69.62,0,0,1-43.33-15.2,86.7,86.7,0,0,0-53.95-18.93H92.3a25.59,25.59,0,0,0-24-17.07H25.6A25.6,25.6,0,0,0,0,307.2V486.4A25.6,25.6,0,0,0,25.6,512H68.27a25.47,25.47,0,0,0,18.94-8.53h214a68.15,68.15,0,0,0,35.49-10l159.92-97.36a31.94,31.94,0,0,0-26.72-57.58ZM68.27,494.93H25.6a8.53,8.53,0,0,1-8.53-8.53V307.2a8.53,8.53,0,0,1,8.53-8.53H68.27a8.53,8.53,0,0,1,8.53,8.53V486.4A8.53,8.53,0,0,1,68.27,494.93ZM494.66,371.7a14.67,14.67,0,0,1-6.83,9.87l-160,97.36a51.09,51.09,0,0,1-26.61,7.47H93.87V315.73h15.36a69.61,69.61,0,0,1,43.32,15.2,86.8,86.8,0,0,0,54,18.94h44.63a34.29,34.29,0,0,1,29.27,16.58l.75,1.25a22.29,22.29,0,0,1-1.27,24.83H228.05a85.07,85.07,0,0,0-47.32,14.34L174.47,411a8.54,8.54,0,1,0,9.47,14.2l6.25-4.16a68,68,0,0,1,37.86-11.47h75.86a43,43,0,0,0,13.49-2.18l158-52.66A14.82,14.82,0,0,1,492,360a14.63,14.63,0,0,1,2.7,11.72Z" transform="translate(0.01 0)"/><path id="Shape-2" data-name="Shape" class="cls-2" d="M332.65,138.14a8.53,8.53,0,1,0-16.76-3.21,44.94,44.94,0,0,1-77.49,21.76,8.54,8.54,0,0,0-12.66,11.42,62,62,0,0,0,36.16,19.62,33.82,33.82,0,0,1-29.52,17.07,8.54,8.54,0,0,0,0,17.07,50.77,50.77,0,0,0,48.07-34,62.31,62.31,0,0,0,52.2-49.76Z" transform="translate(0.01 0)"/><path id="Shape-3" data-name="Shape" class="cls-2" d="M445.53,226.13A64.27,64.27,0,0,0,451,150.49a41.62,41.62,0,0,0-31.18-56.83A88.58,88.58,0,0,0,333.1,19.91c-1.45,0-2.83.18-4.27.25a41.35,41.35,0,0,0-65-7.8A71.11,71.11,0,0,0,223.85,0a71.88,71.88,0,0,0-57.34,29A51.26,51.26,0,0,0,99.58,76,41.68,41.68,0,0,0,73,114.74,41.1,41.1,0,0,0,74.15,124a84,84,0,0,0-14.42,47.16A84.85,84.85,0,0,0,144.4,256a83.57,83.57,0,0,0,21.52-2.81,64.58,64.58,0,0,0,103,17.68,99.39,99.39,0,0,0,24.57,4.74c4.7,19.51,19.13,31.23,50.21,41.65a49.45,49.45,0,0,1,22.68,14.93,31.82,31.82,0,0,0,24.15,11.38,30,30,0,0,0,11.81-2.42A30.74,30.74,0,0,0,421,312.92a30.05,30.05,0,0,0-1.52-9.45,112.26,112.26,0,0,0-10.24-23,87.71,87.71,0,0,0,36.34-54.3Zm-74.24,51.58a8.53,8.53,0,0,0,1.34,17,8.89,8.89,0,0,0,1.36-.1,86.49,86.49,0,0,0,20.31-5.91,94.94,94.94,0,0,1,8.91,20.12,12.9,12.9,0,0,1,.67,4.13,13.64,13.64,0,0,1-8.29,12.54,14.19,14.19,0,0,1-16.22-4.26,66.12,66.12,0,0,0-30.26-20.09c-24.87-8.33-34.26-15.93-38-25.93a99.71,99.71,0,0,0,18.66-3.68,8.54,8.54,0,1,0-5-16.32,84,84,0,0,1-18.85,3.48,80.71,80.71,0,0,1-36.31-5.5,9.41,9.41,0,0,0-9.58,2.37,47.78,47.78,0,0,1-77.1-55.83,8.54,8.54,0,0,0-14.65-8.77,65.4,65.4,0,0,0-6.46,14.86,18.29,18.29,0,0,1-18.77-17.92v-.26a8.43,8.43,0,0,0-8.53-8.41,8.66,8.66,0,0,0-8.54,8.67,35,35,0,0,0,33.21,34.9c0,.54-.1,1.07-.1,1.61a65,65,0,0,0,1.26,12.75,67.51,67.51,0,0,1-76.91-94.92,41.79,41.79,0,0,0,9.73,8.3A8.54,8.54,0,0,0,102,135.86a24.65,24.65,0,0,1,12.62-45.78,24.26,24.26,0,0,1,19.63,9.9,8.54,8.54,0,1,0,13.69-10.2A41.12,41.12,0,0,0,117,73.15a33.88,33.88,0,0,1,40.75-28.78,71.16,71.16,0,0,0-3,9,8.53,8.53,0,0,0,16.52,4.26,54,54,0,0,1,83.31-30.76,41.42,41.42,0,0,0-2.85,14.84,8.54,8.54,0,0,0,17.07,0,24.57,24.57,0,1,1,49.14,0,8.54,8.54,0,0,0,17.07,0,43.19,43.19,0,0,0-.47-4.67,71.39,71.39,0,0,1,68.08,57.18,41,41,0,0,0-15.06,7,8.53,8.53,0,1,0,10.24,13.65A24.63,24.63,0,0,1,434,146.77,24.94,24.94,0,0,1,422.85,157a8.54,8.54,0,0,0,7.26,15.46,42.14,42.14,0,0,0,9.76-6.47,47.31,47.31,0,0,1-8.42,50.42l-.17.18a48.3,48.3,0,0,1-57,10.46,44.74,44.74,0,0,1-7.11-4.44A34.89,34.89,0,0,0,371,185.35,8.53,8.53,0,0,0,355.74,193a18,18,0,0,1-5.84,22.82,18.27,18.27,0,0,1-26.28-6.7,8.54,8.54,0,0,0-15.27,7.63,34.66,34.66,0,0,0,45.15,16.43,62.43,62.43,0,0,0,13,9.11,63.77,63.77,0,0,0,53.4,2.39,70.19,70.19,0,0,1-48.65,33.07Z" transform="translate(0.01 0)"/><path id="Shape-4" data-name="Shape" class="cls-2" d="M234.67,93.87a8.54,8.54,0,0,0-8.54-8.54,47,47,0,0,0-46.93,46.94,8.54,8.54,0,0,0,17.07,0,29.86,29.86,0,0,1,29.86-29.87A8.53,8.53,0,0,0,234.67,93.87Z" transform="translate(0.01 0)"/><path id="Shape-5" data-name="Shape" class="cls-3" d="M19.57,28.1a8.54,8.54,0,0,0,0,12.07L36.63,57.23A8.53,8.53,0,0,0,48.7,45.17L31.63,28.1A8.53,8.53,0,0,0,19.57,28.1Z" transform="translate(0.01 0)"/><path id="Shape-6" data-name="Shape" class="cls-3" d="M492.43,28.1a8.53,8.53,0,0,0-12.06,0L463.3,45.17a8.53,8.53,0,1,0,12.07,12.06l17.06-17.06A8.54,8.54,0,0,0,492.43,28.1Z" transform="translate(0.01 0)"/><path id="Shape-7" data-name="Shape" class="cls-3" d="M36.63,232.9,19.57,250A8.53,8.53,0,1,0,31.63,262L48.7,245A8.54,8.54,0,0,0,36.63,232.9Z" transform="translate(0.01 0)"/><path id="Shape-8" data-name="Shape" class="cls-3" d="M480.37,262A8.53,8.53,0,0,0,492.43,250L475.37,232.9A8.54,8.54,0,0,0,463.3,245Z" transform="translate(0.01 0)"/><path id="Shape-9" data-name="Shape" class="cls-3" d="M0,145.07a8.53,8.53,0,0,0,8.53,8.53H25.6a8.54,8.54,0,0,0,0-17.07H8.53A8.53,8.53,0,0,0,0,145.07Z" transform="translate(0.01 0)"/><path id="Shape-10" data-name="Shape" class="cls-3" d="M503.47,136.53H486.4a8.54,8.54,0,0,0,0,17.07h17.07a8.54,8.54,0,0,0,0-17.07Z" transform="translate(0.01 0)"/></g></g><path class="cls-4" d="M68.82,512H25A25,25,0,0,1,0,487V306.65a25,25,0,0,1,25-25H68.82a25,25,0,0,1,25,25V487A25,25,0,0,1,68.82,512ZM26,495H67.82a9,9,0,0,0,9-9V307.65a9,9,0,0,0-9-9H26a9,9,0,0,0-9,9V486A9,9,0,0,0,26,495Z" transform="translate(0.01 0)"/></svg>