<svg id="Capa_1" data-name="Capa 1" xmlns="http://www.w3.org/2000/svg" viewBox="0 0 512 512"><defs><style>.cls-1{fill:#1e2425;}</style></defs><path class="cls-1" d="M437,0H75A75.09,75.09,0,0,0,0,75V437a75.09,75.09,0,0,0,75,75H437a75.08,75.08,0,0,0,75-75V75A75.09,75.09,0,0,0,437,0Zm45,437a45.05,45.05,0,0,1-45,45H75a45.05,45.05,0,0,1-45-45V75A45.05,45.05,0,0,1,75,30H437a45.05,45.05,0,0,1,45,45Z"/><path class="cls-1" d="M421,61a30,30,0,1,0,30,30A30,30,0,0,0,421,61Z"/><path class="cls-1" d="M256,121c-74.44,0-135,60.56-135,135s60.56,135,135,135,135-60.56,135-135S330.44,121,256,121Zm0,240A105,105,0,1,1,361,256,105.12,105.12,0,0,1,256,361Z"/></svg>