<?xml version="1.0" encoding="utf-8"?>
<!-- Generator: Adobe Illustrator 25.0.1, SVG Export Plug-In . SVG Version: 6.00 Build 0)  -->
<svg version="1.1" id="Capa_1" xmlns="http://www.w3.org/2000/svg" xmlns:xlink="http://www.w3.org/1999/xlink" x="0px" y="0px"
	 viewBox="0 0 512 512" style="enable-background:new 0 0 512 512;" xml:space="preserve">
<style type="text/css">
	.st0{fill:#4D64A8;}
</style>
<g>
	<g>
		<path class="st0" d="M437,0H75C33.7,0,0,33.7,0,75v362c0,41.4,33.7,75,75,75h362c41.4,0,75-33.6,75-75V75C512,33.7,478.4,0,437,0z
			 M482,437c0,24.8-20.2,45-45,45H75c-24.8,0-45-20.2-45-45V75c0-24.8,20.2-45,45-45h362c24.8,0,45,20.2,45,45V437z"/>
	</g>
	<g>
		<path class="st0" d="M421,61c-16.5,0-30,13.5-30,30s13.5,30,30,30s30-13.5,30-30S437.5,61,421,61z"/>
	</g>
	<g>
		<path class="st0" d="M256,121c-74.4,0-135,60.6-135,135s60.6,135,135,135s135-60.6,135-135S330.4,121,256,121z M256,361
			c-57.9,0-105-47.1-105-105s47.1-105,105-105s105,47.1,105,105S313.9,361,256,361z"/>
	</g>
</g>
</svg>
