<?xml version="1.0" encoding="utf-8"?>
<!-- Generator: Adobe Illustrator 25.0.1, SVG Export Plug-In . SVG Version: 6.00 Build 0)  -->
<svg version="1.1" id="Capa_1" xmlns="http://www.w3.org/2000/svg" xmlns:xlink="http://www.w3.org/1999/xlink" x="0px" y="0px"
	 viewBox="0 0 512 512" style="enable-background:new 0 0 512 512;" xml:space="preserve">
<style type="text/css">
	.st0{fill:#4D64A8;}
</style>
<g>
	<path class="st0" d="M7.8,509.9h132.6V161.3H7.8L7.8,509.9z M37.8,191.3h72.6v288.6H37.8L37.8,191.3z"/>
	<path class="st0" d="M74.1,2.1C33.2,2.1,0,35.3,0,76.2s33.2,74.1,74.1,74.1s74.1-33.2,74.1-74.1S115,2.1,74.1,2.1L74.1,2.1z
		 M30,76.2c0-24.3,19.8-44.1,44.1-44.1s44.1,19.8,44.1,44.1s-19.8,44.1-44.1,44.1S30,100.5,30,76.2z"/>
	<path class="st0" d="M511.7,270.8c-4.7-67.9-61.3-120.1-131.5-120.1c-31.4,0-61,10.9-84.4,30.3v-19.6h-127v348.6h132.6V319.3
		c0-21.5,17.5-39,39-39c21.5,0,39,17.5,39,39l0.1,190.7H512V271.1L511.7,270.8z M271.4,479.9h-72.6V191.3h67v42.8l24,0.1l4.5-6.9
		c18.9-29.3,51-46.7,85.9-46.7c55.8,0,100.5,42.6,101.8,97l0,202.3h-72.6l-0.1-160.7c0-38-30.9-69-69-69c-38,0-69,30.9-69,69V479.9z
		"/>
</g>
</svg>
