<svg id="Capa_1" data-name="Capa 1" xmlns="http://www.w3.org/2000/svg" viewBox="0 0 512 507.87"><defs><style>.cls-1{fill:#1e2425;}</style></defs><path class="cls-1" d="M7.81,509.93H140.38V161.32H7.81Zm30-318.61h72.57V479.93H37.81Z" transform="translate(0 -2.07)"/><path class="cls-1" d="M74.1,2.07a74.1,74.1,0,1,0,74.1,74.09A74.18,74.18,0,0,0,74.1,2.07ZM30,76.16a44.1,44.1,0,1,1,44.1,44.1A44.14,44.14,0,0,1,30,76.16Z" transform="translate(0 -2.07)"/><path class="cls-1" d="M511.68,270.79C507,202.93,450.36,150.65,380.19,150.65a131.78,131.78,0,0,0-84.36,30.27v-19.6h-127V509.93H301.37V319.27a39,39,0,1,1,77.94,0l.13,190.65H512V271.11ZM271.37,479.93H198.8V191.32h67v42.85l24,.14,4.46-6.93a101.72,101.72,0,0,1,85.9-46.73c55.84,0,100.54,42.6,101.78,97l0,202.3H409.42l-.11-160.66a69,69,0,0,0-137.94,0Z" transform="translate(0 -2.07)"/></svg>