<svg id="Capa_1" data-name="Capa 1" xmlns="http://www.w3.org/2000/svg" viewBox="0 0 464.44 448"><defs><style>.cls-1{fill:#4d64a8;}.cls-2{fill:salmon;}.cls-3{fill:#0f225c;}</style></defs><path class="cls-1" d="M283.86,280.93a109.94,109.94,0,0,0,68.56-103.5c0-62.3-53.83-113-120-113s-120,50.7-120,113A109.93,109.93,0,0,0,181,280.93l.93.5,6.35,10.43a23.73,23.73,0,0,0-8.65,32.42,23.46,23.46,0,0,0,3,4.15,23.9,23.9,0,0,0,17.76,40h64a23.9,23.9,0,0,0,17.76-40,23.72,23.72,0,0,0-1.45-33.52,23.33,23.33,0,0,0-4.15-3.05l6.35-10.43Zm-19.44,71.5H200.69a8.17,8.17,0,0,1-8.25-7.46,8,8,0,0,1,8-8.54h63.72a8.19,8.19,0,0,1,8.26,7.47A8,8,0,0,1,264.42,352.43Zm0-32H200.69a8.17,8.17,0,0,1-8.25-7.46,8,8,0,0,1,8-8.54h63.72a8.19,8.19,0,0,1,8.26,7.47A8,8,0,0,1,264.42,320.43Zm12.18-53.76-3.2,1.73a8.05,8.05,0,0,0-3,2.87l-10.46,17.16h-3.51V227.75l32-32a8,8,0,0,0,0-11.31h0a8,8,0,0,0-11.31,0l-34.35,34.35a8,8,0,0,0-2.34,5.65v64h-16v-64a8,8,0,0,0-2.35-5.65l-34.34-34.35a8,8,0,0,0-11.31,0h0a8,8,0,0,0,0,11.32l32,32v60.68h-3.51l-10.46-17.16a8.13,8.13,0,0,0-3-2.87l-3.2-1.74c-.26-.13-.52-.26-.79-.37a94.19,94.19,0,0,1-59-88.86c0-53.48,46.65-97,104-97s104,43.52,104,97a94.21,94.21,0,0,1-59,88.86A7.18,7.18,0,0,0,276.6,266.67Z" transform="translate(-0.2 -8.44)"/><rect class="cls-2" x="80.41" y="57.61" width="16" height="53.66" rx="8" transform="translate(-26.85 117.32) rotate(-63.43)"/><rect class="cls-2" x="348.09" y="76.43" width="53.66" height="16" rx="8" transform="translate(-7.65 114.53) rotate(-18.45)"/><rect class="cls-2" x="32.22" y="160" width="48" height="16" rx="8"/><rect class="cls-2" x="384.22" y="160" width="48" height="16" rx="8"/><rect class="cls-2" x="61.58" y="276.43" width="53.66" height="16" rx="8" transform="translate(-118.07 61.13) rotate(-26.57)"/><rect class="cls-2" x="368.41" y="257.62" width="16" height="53.66" rx="8" transform="translate(-46.55 485.48) rotate(-63.43)"/><rect class="cls-2" x="224.22" width="16" height="40" rx="8"/><path class="cls-3" d="M464.42,380.45v-8a4,4,0,0,0-4-4c-103.18.64-211.27,25.81-212,72h-32c-.7-46.17-108.79-71.34-212-72a4,4,0,0,0-4,4v8a4,4,0,0,0,4,4c115.06.65,195.06,29.7,196,56H4.42a4,4,0,0,0-4,4v8a4,4,0,0,0,4,4h456a4,4,0,0,0,4-4v-8a4,4,0,0,0-4-4h-196c.91-26.28,80.91-55.33,196-56A4,4,0,0,0,464.42,380.45Z" transform="translate(-0.2 -8.44)"/><path class="cls-3" d="M.21,420.44l.42-8a4,4,0,0,1,4.2-3.78l140,7.37a8,8,0,0,1,7.56,8.41h0A8,8,0,0,1,144,432L4,424.64A4,4,0,0,1,.21,420.44Z" transform="translate(-0.2 -8.44)"/><path class="cls-3" d="M316,416.25l144-7.6a4,4,0,0,1,4.21,3.79l.42,8a4,4,0,0,1-3.79,4.21l-140,7.39a8,8,0,0,1-8.41-7.57l-.21-4A4,4,0,0,1,316,416.25Z" transform="translate(-0.2 -8.44)"/></svg>