<svg id="Capa_1" data-name="Capa 1" xmlns="http://www.w3.org/2000/svg" viewBox="0 0 512 412.95"><defs><style>.cls-1{fill:#1e2425;}</style></defs><path class="cls-1" d="M157,277.77a17.63,17.63,0,0,0-17.6,17.6v101A17.63,17.63,0,0,0,157,414h20.21a17.63,17.63,0,0,0,17.6-17.6v-101a17.63,17.63,0,0,0-17.6-17.6Zm22.81,17.6v101a2.61,2.61,0,0,1-2.6,2.6H157a2.61,2.61,0,0,1-2.6-2.6v-101a2.61,2.61,0,0,1,2.6-2.6h20.21A2.61,2.61,0,0,1,179.81,295.37Z" transform="translate(0 -49.52)"/><path class="cls-1" d="M245.9,277.77a17.62,17.62,0,0,0-17.6,17.6v101A17.62,17.62,0,0,0,245.9,414h20.2a17.62,17.62,0,0,0,17.6-17.6v-101a17.62,17.62,0,0,0-17.6-17.6Zm22.8,17.6v101a2.6,2.6,0,0,1-2.6,2.6H245.9a2.6,2.6,0,0,1-2.6-2.6v-101a2.6,2.6,0,0,1,2.6-2.6h20.2A2.6,2.6,0,0,1,268.7,295.37Z" transform="translate(0 -49.52)"/><path class="cls-1" d="M355,277.77H334.79a17.63,17.63,0,0,0-17.6,17.6v101a17.63,17.63,0,0,0,17.6,17.6H355a17.63,17.63,0,0,0,17.6-17.6v-101a17.63,17.63,0,0,0-17.6-17.6Zm2.6,118.62A2.61,2.61,0,0,1,355,399H334.79a2.61,2.61,0,0,1-2.6-2.6v-101a2.61,2.61,0,0,1,2.6-2.6H355a2.61,2.61,0,0,1,2.6,2.6Z" transform="translate(0 -49.52)"/><path class="cls-1" d="M494.4,194.94H443.79a7.5,7.5,0,0,0,0,15H494.4a2.6,2.6,0,0,1,2.6,2.6v20.2a2.61,2.61,0,0,1-2.6,2.61h-123a28.63,28.63,0,0,0,1.55-3.64,27.5,27.5,0,0,0-1.25-21.17l-.29-.6h37.29a7.5,7.5,0,0,0,0-15H364.12l-63-129.81A27.72,27.72,0,0,0,256,58.26a27.72,27.72,0,0,0-45.13,6.87l-63,129.81H17.6A17.61,17.61,0,0,0,0,212.54v20.2a17.63,17.63,0,0,0,17.6,17.61H27.93L58.46,431a37.71,37.71,0,0,0,37.28,31.5H351.79a7.5,7.5,0,0,0,0-15h-256a22.74,22.74,0,0,1-22.49-19L43.14,250.35H65.88a7.5,7.5,0,1,0,0-15H17.6a2.62,2.62,0,0,1-2.6-2.61v-20.2a2.6,2.6,0,0,1,2.6-2.6h123l-.29.6a27.55,27.55,0,0,0-1.26,21.17,28.68,28.68,0,0,0,1.56,3.64H101a7.5,7.5,0,1,0,0,15H469.82l-31,178.23a22.76,22.76,0,0,1-22.47,18.9H386.89a7.5,7.5,0,0,0,0,15h29.48a37.73,37.73,0,0,0,37.25-31.33l31.43-180.8h9.35A17.63,17.63,0,0,0,512,232.74v-20.2a17.62,17.62,0,0,0-17.6-17.6ZM264.2,73.06a12.71,12.71,0,0,1,23.44-1.38L358.2,217.09a12.7,12.7,0,1,1-22.86,11.09L264.78,82.77A12.64,12.64,0,0,1,264.2,73.06ZM256,99l46.54,95.9H209.46ZM224.36,71.68a12.73,12.73,0,0,1,11.45-7.16,12.71,12.71,0,0,1,11.41,18.25L176.66,228.18a12.7,12.7,0,0,1-22.86-11.09Zm-34.21,163,12-24.79H309.82l12,24.79c.1.21.21.41.31.62H189.84c.1-.21.21-.41.31-.62Z" transform="translate(0 -49.52)"/></svg>