<svg id="Layer_1" data-name="Layer 1" xmlns="http://www.w3.org/2000/svg" viewBox="0 0 489.95 490"><defs><style>.cls-1{fill:#4d64a8;}</style></defs><path class="cls-1" d="M485.7,198.5c-10.7-13.4-25.3-20.8-41.1-20.8H408.5C405.1,85.1,338,11,256,11S106.9,85.1,103.5,177.7H67.4c-15.8,0-30.4,7.4-41.1,20.8C12.8,215.3,7.9,238.7,13,261.2L56.3,452c6.5,28.8,28.9,49,54.4,49H401.2c25.5,0,47.9-20.1,54.4-49L499,261.2c5.1-22.5.2-45.9-13.3-62.7ZM256,51.8c59.6,0,108.4,55.8,111.6,125.9H144.4C147.6,107.7,196.4,51.8,256,51.8ZM459.2,252.1,415.9,443c-2.2,9.8-8.5,17.2-14.6,17.2H110.7c-6.1,0-12.4-7.4-14.6-17.2L52.8,252.1c-2.3-10.1-3.7-33.6,14.6-33.6H444.6c19.7,0,16.9,23.5,14.6,33.6Z" transform="translate(-11.03 -11)"/><path class="cls-1" d="M154.7,259.1a20.36,20.36,0,0,0-20.4,20.4V407a20.4,20.4,0,0,0,40.8,0V279.5A20.36,20.36,0,0,0,154.7,259.1Z" transform="translate(-11.03 -11)"/><path class="cls-1" d="M253.6,259.1a20.36,20.36,0,0,0-20.4,20.4V407a20.4,20.4,0,0,0,40.8,0V279.5A20.49,20.49,0,0,0,253.6,259.1Z" transform="translate(-11.03 -11)"/><path class="cls-1" d="M352.4,259.1A20.36,20.36,0,0,0,332,279.5V407a20.4,20.4,0,0,0,40.8,0V279.5A20.42,20.42,0,0,0,352.4,259.1Z" transform="translate(-11.03 -11)"/></svg>