<svg id="Layer_1" data-name="Layer 1" xmlns="http://www.w3.org/2000/svg" viewBox="0 0 490 490"><defs><style>.cls-1{fill:#4d64a8;}</style></defs><path class="cls-1" d="M256,242.4A115.7,115.7,0,1,1,371.7,126.7,115.83,115.83,0,0,1,256,242.4Zm0-190.6a74.9,74.9,0,1,0,74.9,74.9A75,75,0,0,0,256,51.8Z" transform="translate(-11 -11)"/><path class="cls-1" d="M480.6,501H31.4A20.36,20.36,0,0,1,11,480.6a246.36,246.36,0,0,1,73.1-176c30.4-30.2,73.3-47.5,117.6-47.5H310.3c44.4,0,87.2,17.3,117.6,47.5a246.36,246.36,0,0,1,73.1,176A20.36,20.36,0,0,1,480.6,501ZM52.8,460.2H459.2a205,205,0,0,0-60.1-126.6C376.3,311,343.9,298,310.3,298H201.7c-33.7,0-66,13-88.8,35.6A205,205,0,0,0,52.8,460.2Z" transform="translate(-11 -11)"/></svg>