<svg id="Layer_2" data-name="Layer 2" xmlns="http://www.w3.org/2000/svg" viewBox="0 0 52.49 52.36"><defs><style>.cls-1{fill:#1e2425;}.cls-2{fill:none;}</style></defs><path class="cls-1" d="M42.49,8.63a1,1,0,0,0-1-1H25.61a1,1,0,0,0-1,1v1a1,1,0,0,0,1,1l11.65.08-20.8,20.8a1,1,0,0,0,0,1.42l.7.7a1,1,0,0,0,1.42,0L39.4,12.85l.12,11.71a1,1,0,0,0,1,1h1a1,1,0,0,0,1-1Z" transform="translate(1.02 1.36)"/><path class="cls-2" d="M38.47,47.12H3V11.64H7V9.56H3a1,1,0,0,0-1,1V47a1,1,0,0,0,1,1H39.42a1,1,0,0,0,1-1V43.13h-2Z" transform="translate(1.02 1.36)"/><path class="cls-2" d="M9,43.13a2,2,0,0,1-2-2v2Z" transform="translate(1.02 1.36)"/><polygon class="cls-2" points="11 10.92 11 12.99 39.49 12.99 39.49 41.48 41.44 41.48 41.44 10.92 11 10.92"/><path class="cls-2" d="M43.42,40.13h4a1,1,0,0,0,1-1V2.64a1,1,0,0,0-1-1H11a1,1,0,0,0-1,1V6.56H43.42Z" transform="translate(1.02 1.36)"/><path class="cls-2" d="M11,40.13H38.47V11.64H10V39.13A1,1,0,0,0,11,40.13Z" transform="translate(1.02 1.36)"/><polygon class="cls-2" points="4.01 48.48 39.49 48.48 39.49 44.48 10 44.48 8 44.48 8 42.48 8 12.99 4.01 12.99 4.01 48.48"/><path class="cls-1" d="M49.46-1.36H9a2,2,0,0,0-2,2V6.56h3V1.64H48.46V40.13h-5v3h6a2,2,0,0,0,2-2V.64A2,2,0,0,0,49.46-1.36Z" transform="translate(1.02 1.36)"/><path class="cls-1" d="M11,40.13H10V9.56H7V41.13a2,2,0,0,0,2,2H40.42v-3H11Z" transform="translate(1.02 1.36)"/><path class="cls-1" d="M11,1.64H10v1A1,1,0,0,1,11,1.64Z" transform="translate(1.02 1.36)"/><path class="cls-1" d="M48.46,2.64v-1h-1A1,1,0,0,1,48.46,2.64Z" transform="translate(1.02 1.36)"/><path class="cls-1" d="M47.46,40.13h1v-1A1,1,0,0,1,47.46,40.13Z" transform="translate(1.02 1.36)"/><path class="cls-1" d="M10,39.13v1h1A1,1,0,0,1,10,39.13Z" transform="translate(1.02 1.36)"/><path class="cls-1" d="M40.42,43.13V47a1,1,0,0,1-1,1H3a1,1,0,0,1-1-1V10.56a1,1,0,0,1,1-1H7v-3H1a2,2,0,0,0-2,2V49a2,2,0,0,0,2,2H41.42a2,2,0,0,0,2-2V43.13h-3Z" transform="translate(1.02 1.36)"/><polygon class="cls-1" points="42.49 41.48 41.44 41.48 41.44 44.48 42.49 44.48 44.44 44.48 44.44 41.48 42.49 41.48"/><polygon class="cls-1" points="8 10.92 11 10.92 11 9.99 11 7.92 8 7.92 8 9.99 8 10.92"/></svg>