<?xml version="1.0" encoding="utf-8"?>
<!-- Generator: Adobe Illustrator 25.0.1, SVG Export Plug-In . SVG Version: 6.00 Build 0)  -->
<svg version="1.1" id="Layer_1" xmlns="http://www.w3.org/2000/svg" xmlns:xlink="http://www.w3.org/1999/xlink" x="0px" y="0px"
	 viewBox="0 0 1280 5734.9" style="enable-background:new 0 0 1280 5734.9;" xml:space="preserve">
<style type="text/css">
	.st0{clip-path:url(#SVGID_2_);}
	.st1{clip-path:url(#SVGID_4_);}
	.st2{opacity:0.18;}
	.st3{clip-path:url(#SVGID_6_);}
	.st4{clip-path:url(#SVGID_8_);}
	.st5{fill:#AEE5CE;}
	.st6{fill:#BFE5CF;}
</style>
<g>
	<defs>
		<rect id="SVGID_1_" x="0" y="-0.5" width="1280" height="2413.1"/>
	</defs>
	<clipPath id="SVGID_2_">
		<use xlink:href="#SVGID_1_"  style="overflow:visible;"/>
	</clipPath>
	<g class="st0">
		<g>
			<defs>
				<rect id="SVGID_3_" x="0" y="-0.5" width="1280" height="2413.1"/>
			</defs>
			<clipPath id="SVGID_4_">
				<use xlink:href="#SVGID_3_"  style="overflow:visible;"/>
			</clipPath>
			<g class="st1">
				<g class="st2">
					<g>
						<defs>
							<rect id="SVGID_5_" x="-9" y="-7.5" width="1298" height="2421.1"/>
						</defs>
						<clipPath id="SVGID_6_">
							<use xlink:href="#SVGID_5_"  style="overflow:visible;"/>
						</clipPath>
						<g class="st3">
							<g>
								<defs>
									<rect id="SVGID_7_" x="0" y="-0.5" width="1280" height="2413.1"/>
								</defs>
								<clipPath id="SVGID_8_">
									<use xlink:href="#SVGID_7_"  style="overflow:visible;"/>
								</clipPath>
								<g class="st4">
									<path class="st5" d="M44,165.6c37.9-19.1,78.5-32.1,120.4-38.7c24.9-3.9,65.1-5,89.9-5.1c118.9-0.2,236.1,29.5,354.3,46.6
										c56,10,113.1,12.3,169.7,6.8c44.7-9.7,88.6-27.1,131.5-52.2c50.6-25.2,101.2-50.8,152.2-73.7
										c71.7-32.1,144.5-47.1,217.4-49.4v2412.1H0.5V190.6C15.6,181.2,31,172.1,44,165.6"/>
								</g>
							</g>
						</g>
					</g>
				</g>
			</g>
		</g>
	</g>
</g>
<path class="st6" d="M1236.5,912.7c-37.9-19.1-78.5-32.1-120.5-38.7c-24.9-3.9-65.2-5-90-5.1c-119-0.2-236.2,29.5-354.6,46.7
	c-56,10-113.2,12.3-169.8,6.8c-44.8-9.7-88.7-27.1-131.6-52.2c-50.6-25.2-101.3-50.9-152.3-73.7C145.9,764.3,73,749.3,0,747v1666
	h1280V937.8C1264.8,928.4,1249.5,919.2,1236.5,912.7z"/>
<rect x="4.2" y="2404.4" class="st6" width="1275.8" height="3330.5"/>
</svg>
