<svg id="Layer_1" data-name="Layer 1" xmlns="http://www.w3.org/2000/svg" xmlns:xlink="http://www.w3.org/1999/xlink" viewBox="0 0 1280.02 7993.24"><defs><style>.cls-1{fill:none;}.cls-2{clip-path:url(#clip-path);}.cls-3{opacity:0.18;}.cls-4{opacity:0.18;}.cls-5{fill:#bfe5cf;}</style><clipPath id="clip-path" transform="translate(0.02 0.02)"><rect class="cls-1" x="-0.02" y="-0.5" width="1280" height="2413.11"/></clipPath></defs><g class="cls-4"><path class="cls-5" d="M1279.48,0C1206.54,2.26,1133.74,17.25,1062,49.36,1011.09,72.17,960.48,97.79,909.84,123q-64.43,37.62-131.52,52.2a621.52,621.52,0,0,1-169.7-6.77c-118.25-17.12-235.41-46.86-354.32-46.62-24.78.07-65,1.18-89.93,5.07A407.91,407.91,0,0,0,44,165.55C31,172.08,15.63,181.22.48,190.63V2412.11h1279Z" transform="translate(0.02 0.02)"/><rect class="cls-5" y="2413.63" width="1280.02" height="5579.61"/></g></svg>