<svg id="Layer_1" data-name="Layer 1" xmlns="http://www.w3.org/2000/svg" viewBox="0 0 385.43 125.8"><defs><style>.cls-1{fill:#1e2425;}.cls-2{fill:#bfe5cf;}.cls-3{fill:salmon;}</style></defs><path class="cls-1" d="M214.18,60.91h-4.35V43.5c0-2.62-.26-4.8-.32-6.33a7.37,7.37,0,0,0-7.68-6.92,10.18,10.18,0,0,0-7.94,4c-2.43,3.14-2.88,7.17-2.88,12.29v14.4h-4.35v-34H191v5.82C194,28.4,197.8,26,202.66,26c5.18,0,8.89,2.69,10.75,8.19,3-5.44,7.49-8.19,12.48-8.19,7,0,11.58,5.06,11.58,14.72V60.91h-4.35V42.35c0-2.5-.32-4.48-.38-5.76-.2-3-3.07-6.34-7.68-6.34a10.36,10.36,0,0,0-9.67,6.92,24.13,24.13,0,0,0-1.21,8.89Z" transform="translate(-21.89 -12.85)"/><path class="cls-1" d="M252.26,16.5a3.69,3.69,0,0,1-3.65,3.64A3.63,3.63,0,0,1,245,16.5a3.58,3.58,0,0,1,3.58-3.59A3.64,3.64,0,0,1,252.26,16.5ZM246.5,26.93h4.35v34H246.5Z" transform="translate(-21.89 -12.85)"/><path class="cls-1" d="M264.55,33c3.52-4.61,7.74-7,12.73-7,7.43,0,12.61,5.12,12.61,15.81V60.91h-4.35V42.41c0-8-2.5-12.41-9.09-12.41a10.89,10.89,0,0,0-9,4.61c-2.56,3.32-2.94,6.65-2.94,12V60.91H260.2v-34h4.35Z" transform="translate(-21.89 -12.85)"/><path class="cls-1" d="M329.18,55.08a17.22,17.22,0,0,1-13.69,6.66c-9.92,0-17.41-8.25-17.41-17.92A17.66,17.66,0,0,1,315.62,26a16.07,16.07,0,0,1,13.56,7.1V13.81h4.36v47.1h-4.36ZM302.56,44c0,7.36,5.76,13.82,13.38,13.82a13.34,13.34,0,0,0,13.5-13.69c0-7.87-5.82-13.83-13.44-13.83A13.49,13.49,0,0,0,302.56,44Z" transform="translate(-21.89 -12.85)"/><path class="cls-1" d="M345.76,21.62c0-5.51,1.35-8.77,6.91-8.77a16.33,16.33,0,0,1,5,1V18.1a9.74,9.74,0,0,0-4.09-1c-3.58,0-3.46,2.18-3.46,5.25v4.61h7.17v3.84h-7.17V60.91h-4.35V30.77h-4.48V26.93h4.48Z" transform="translate(-21.89 -12.85)"/><path class="cls-1" d="M388.83,26.93h4.61v17.6c0,11.45-5.18,17.21-14.91,17.21s-15-5.76-15-17.21V26.93h4.61V43.5c0,3.59,0,6.53,1,8.58,1.6,3.45,5.12,5.44,9.41,5.44a10.6,10.6,0,0,0,7.68-3c2.69-2.88,2.62-6.14,2.62-11Z" transform="translate(-21.89 -12.85)"/><path class="cls-1" d="M402.72,13.81h4.35v47.1h-4.35Z" transform="translate(-21.89 -12.85)"/><path class="cls-1" d="M190.9,99c2.4-3.48,5-5.46,8.22-5.46a6.45,6.45,0,0,1,3.66,1.08l-2.16,3.48a4.88,4.88,0,0,0-2.16-.6c-3,0-5.7,2.58-6.9,7-.54,2-.66,5.34-.66,9.66v12.12h-4.32V94.37h4.32Z" transform="translate(-21.89 -12.85)"/><path class="cls-1" d="M208.72,110.63c.18,7.32,5.16,12.66,12,12.66,6.66,0,9.84-3.78,12.18-7.62l3.42,1.8c-3.24,6.36-8.22,9.54-15.18,9.54-10.56,0-16.62-8.1-16.62-16.62,0-8.7,6.42-16.86,16.38-16.86,9.06,0,16.38,6.54,16.5,17.1ZM232.9,107c-1.68-6.6-6.42-9.54-11.94-9.54-5.7,0-10,3.06-11.82,9.54Z" transform="translate(-21.89 -12.85)"/><path class="cls-1" d="M272.74,94.37h4v31.86h-4v-5.46A16.15,16.15,0,0,1,259.9,127,16.74,16.74,0,0,1,260,93.53a15.07,15.07,0,0,1,12.72,6.66Zm-25,16a12.78,12.78,0,0,0,12.54,13,12.9,12.9,0,1,0-12.54-13Z" transform="translate(-21.89 -12.85)"/><path class="cls-1" d="M313.78,120.77A16.15,16.15,0,0,1,300.94,127a16.74,16.74,0,0,1,.12-33.48,15.07,15.07,0,0,1,12.72,6.66V82.07h4.08v44.16h-4.08Zm-25-10.44a12.78,12.78,0,0,0,12.54,13A12.51,12.51,0,0,0,314,110.45c0-7.38-5.46-13-12.6-13A12.65,12.65,0,0,0,288.82,110.33Z" transform="translate(-21.89 -12.85)"/><path class="cls-1" d="M332,84.59A3.46,3.46,0,0,1,328.54,88a3.41,3.41,0,0,1-3.36-3.42,3.35,3.35,0,0,1,3.36-3.36A3.41,3.41,0,0,1,332,84.59Zm-5.4,9.78h4.08v31.86h-4.08Z" transform="translate(-21.89 -12.85)"/><path class="cls-1" d="M343.18,100.07c3.3-4.32,7.26-6.54,11.94-6.54,7,0,11.82,4.8,11.82,14.82v17.88h-4.08V108.89c0-7.5-2.34-11.64-8.52-11.64a10.22,10.22,0,0,0-8.4,4.32c-2.4,3.12-2.76,6.24-2.76,11.28v13.38H339.1V94.37h4.08Z" transform="translate(-21.89 -12.85)"/><path class="cls-1" d="M407.32,119.75c0,5.22-.3,9.54-2.88,13.08s-7.44,5.82-13.5,5.82c-9.18,0-13.62-3.72-16.44-9.9h4.44c2.4,4.2,6.12,6.18,11.76,6.18,5.28,0,9.18-1.92,11.1-5.4a13.94,13.94,0,0,0,1.38-7v-2.4a16.38,16.38,0,0,1-29.1-10.08A16.58,16.58,0,0,1,390.4,93.53c5.64,0,9.42,2.4,12.78,6.36V94.37h4.14Zm-29-9.42c0,6.36,4.5,11.94,12.9,11.94,7,0,12.18-4.8,12.18-12.24a12.08,12.08,0,0,0-12.3-12.54A12.58,12.58,0,0,0,378.28,110.33Z" transform="translate(-21.89 -12.85)"/><path class="cls-2" d="M157,81.81c0-.16,0-.3,0-.45-.33-5.36-5-11-10.83-11.12H31.78c-2.78,0-5.24-.64-5.38-3.24-.1-1.87.5-2.48,2.08-3.35,0,0,.56-.52,3.52-1.12l4.56-.72L147.64,47.49A10.69,10.69,0,0,0,157,37.24h0s0,0,0-.08,0-.05,0-.08,0-.3,0-.45a10.8,10.8,0,0,0-10.84-9.79H25.85c-2.19,0-4,3-4,5h0c0,2.05,1.77,5,4,5H147.11c2.78,0,5.24.64,5.38,3.24.1,1.87-.92,2.54-2.51,3.41a24.64,24.64,0,0,1-3.89,1.06l-1.7.34-1.1.22-112,14.48A10.69,10.69,0,0,0,21.9,69.91h0v.16c0,.15,0,.3,0,.45A10.8,10.8,0,0,0,32.76,80.3H147.13c2.78,0,5.24,2,5.37,4.56A4.73,4.73,0,0,1,150,89.26h0a13.48,13.48,0,0,1-3.87,1.4l-1.69.34-1.1.22-112,14.48A10.7,10.7,0,0,0,21.91,116h0v.16c0,.15,0,.3,0,.45a10.79,10.79,0,0,0,10.83,9.79H137.09c2.17,0,3.94-3,4-5h0c0-2.06-1.76-5.06-4-5.06H31.79c-2.77,0-5.24-.64-5.37-3.24-.1-1.87.88-2.56,2.47-3.43a12.62,12.62,0,0,1,3.87-1.2l3.81-.56L147.66,93.53c5.26-.69,9.27-6.46,9.35-11.57v1.33s0-1.37,0-1.4S157,81.84,157,81.81Z" transform="translate(-21.89 -12.85)"/><circle class="cls-3" cx="129.28" cy="108.47" r="5.66"/></svg>