<svg xmlns="http://www.w3.org/2000/svg" viewBox="0 0 750 500"><defs><style>.cls-1{isolation:isolate;}.cls-2{fill:#bfe5cf;}.cls-3{fill:#6aa87e;}.cls-4{fill:#467c5b;}.cls-5{fill:#0f225c;}.cls-6{fill:#2b3d87;}.cls-7{fill:#4d64a8;}.cls-8{fill:#d1aa80;}.cls-9{fill:#f4cc4d;}.cls-10{fill:#f0f2f0;}.cls-11{fill:#bf9871;}.cls-12{fill:#f9af22;}.cls-13{fill:#99744f;}.cls-14{fill:#0b1942;}.cls-15{fill:salmon;}.cls-16{fill:#c0cac0;opacity:0.32;mix-blend-mode:multiply;}.cls-17{fill:#0c1e4c;}.cls-18{fill:#e8ddd9;}.cls-19{fill:#cab0a7;}.cls-20{fill:#1e2425;}.cls-21,.cls-22,.cls-25{fill:none;stroke-miterlimit:10;}.cls-21{stroke:#0f225c;}.cls-22{stroke:#1e2425;}.cls-23{fill:#ea9815;}.cls-24{fill:#e0bfa9;}.cls-25{stroke:#f99f98;}.cls-26{fill:#af897b;}</style></defs><g class="cls-1"><g id="OBJECTS"><rect class="cls-2" x="266.31" y="32.85" width="217.38" height="434.29"/><path class="cls-3" d="M483.69,74.23c-56.71,1-48.55,58.19-88.47,66.75-35.61,4.79-70.57-38.38-100.9-3.55-44.81,64.49,53,102.69,38.08,148.16C324,317.68,289.91,327.76,266.31,329V467.15H483.69Z"/><path class="cls-4" d="M483.69,299.56c-95.75-30.41-135,25-182.13,74.34-16.24,16.65-37.28,23.86-35.25,25.54v67.71H483.69Z"/><path class="cls-5" d="M294,375.78c-2.11,6.28,1.49,10.42,7.09,14.06,15.62,12.46,30.25,9,21.07-10.79C315.69,368.16,299.55,362.52,294,375.78Z"/><path class="cls-5" d="M429.65,423.68c-1.29,11.75-28.14,5.43-32-2-5.83-8.64-8.37-11.61-2.26-20.14,5.69-14.08,20.85-14.28,28.29-3.12C428.06,406.36,428.39,414.49,429.65,423.68Z"/><path class="cls-6" d="M406.27,112.5c-3.35,8.71,5.48,12.79,13.21,14.59,28.7,6.69,54.12,3.71,29.18-26.2C434.43,93.86,413.09,96.61,406.27,112.5Z"/><path class="cls-2" d="M408.21,118.08c3.19,39.86-11.91,32.84-12.33,50.12,2.75-3.43,8.4-2.43,12-5-4.23,6,4.49,12.6,2.44,20.26,5.31-3.17,3.22-11.31,6.48-16.33,1.09,1.65,2,2.57,2.37,5.17,1-7.13,8.07-11.57,9-19.19C434.8,127.3,422.8,65.91,408.21,118.08Z"/><path class="cls-7" d="M409,161.38c-20.62,4.63-24.86,28.23-27.77,46.42-.09,9.37-6.47,26.75-.32,27.67,11.74,2.46,28.07,5.25,27.92-10.8,2.31-15.47,2.83-30.52,8.86-44.75C424.83,168.52,425.47,153.15,409,161.38Z"/><path class="cls-8" d="M387,433.51c-1.93,4.61,3.66,7.77,8.15,9,10.29,3.52,25-33.83,24.48-38.94-2.64-9.61-14.41-8.48-21.41-4C392,409.28,390.81,422.21,387,433.51Z"/><path class="cls-9" d="M397.36,434.61c6.78,3.85,6.75,5.45,4.36,13.08-1.88,8,1.42,15-2.15,23.24-8,6.39-6.92,9.73-10.95,16.66-8.85,6.69-25.22,3.41-31.79-3.57,1.69-18,22-29.88,26.23-48.34C385.1,429.65,393.2,432.26,397.36,434.61Z"/><path class="cls-6" d="M421.75,295.26c-17.63,33.93-15.66,75.39-29.3,111.28,26.57-8.52,27.94,5.23,37.48,19.75,17.28-48.47.53-77.31,20.16-95.17,11.46-13.72,35.05-51.43,17.76-60.45C447,258.93,430.76,279.71,421.75,295.26Z"/><path class="cls-8" d="M302.56,409.51c1.39,3.89,17,2,17.81-3.18-.69-11.93,2.32-24.75-1.7-36.15-2.93-5-13.34-4.46-16,.53C302.48,382.91,302.69,396.73,302.56,409.51Z"/><path class="cls-10" d="M392.55,473.8c-5.45,13.76-24.47,11.36-35.23,5.15-5.95,12.46,30.51,16.59,33.12,5.88,1.65-11.08,7.65-8.27,10.06-17.11A14.8,14.8,0,0,0,392.55,473.8Z"/><path class="cls-9" d="M284.15,420.31c11.68-6.62,12.65-24.91,19.71-19.89,2.31,3.91,2,1.94,6.7.92,4.1.66,8.06-1.84,10.89-.46-.25,11.64,10.15,30.39.06,33.86a27.7,27.7,0,0,1-8.39,1.75c-18.45-.63-21.6,10-36.7,9-8.79-.8-25.59-5.56-16.23-14.43C269.35,429.86,276.67,425.85,284.15,420.31Z"/><path class="cls-10" d="M325.05,432.4c.67-1.31.72-3.16.74-5.64-6.66,5.3-15.05,4-23.51,4.86-15.22,3.59-30,12.89-43.7,1.08-5.12,8.77,9,10.87,15.25,12.52,9.17,2.13,15.47-2.43,24-6.25C306.51,434.92,317.64,438.92,325.05,432.4Z"/><path class="cls-6" d="M327.49,291.75c-6.8,3.87-15.8,8.09-18,17.14-7.21,23.47-15.23,46.86-16.38,71.13,11.25-14.84,20.61,11.9,30.32,16.17C333,379.27,338.66,359.7,350.7,344c20.26-26.27,54.64-46.1,82.83-53.29,5-1.64,9.29-3.93,12.46-8.87,11.76-26.78-44.77-25.94-57.2-23.14C365.05,263.06,348.28,280.72,327.49,291.75Z"/><path class="cls-7" d="M409.83,165.67c-19.82,41.67-2.15,73.73-16.1,83-6.22,5.39-13.91,8.14-19.18,14.55,4.53.65,9.36,3.24,13.39,5.95,39.91,32.8,57.43-5.73,87.81,12.67.65,1.79-.22-1,.36-3.72a158.88,158.88,0,0,0,.63-22.38c-4.49-42.8,10.59-63.39,4.49-78.29C470.62,140.46,411.44,156.49,409.83,165.67Z"/><path class="cls-8" d="M426.78,144.36c1,5.56-1.24,11.65-1.52,17.55,2,7.17,29.95,1.58,26.84-4.69-6.08-10.52-7-22.95-6.29-35.33C425.7,117.15,423.08,129,426.78,144.36Z"/><path class="cls-11" d="M440.65,136.25c14.57-16.21-3.12-20.57-13.57-10.44-4.65,6.08.06,12.57-.23,19.86C432,143.29,437,140.53,440.65,136.25Z"/><path class="cls-8" d="M418.89,101.74c-15.39,45.39,22.25,37.78,27.55,20.24C455.43,90,423,86.32,418.89,101.74Z"/><path class="cls-2" d="M451.17,168.49c2.95-4,8.14-3,12.3-5.09,2-.87,3.45-4.46,6.06-2.82-1-4.75-5.54-7.79-6.54-13.2-.4-2.73.67-6.88-.75-10.06-4.39-5.78-7.38-10.43-6-18.56C459.07,101.48,442.68,96,446,104.1c4.43,16.68-6.89,30.23-.88,48.4,2.54,8-2.77,14.35-1.35,23.07.32,4.61,4.59,5.22,4.95,10.14C453.94,181.92,445.41,173.64,451.17,168.49Z"/><path class="cls-7" d="M458.22,124.57c-.93-16.74-8.73-23.3-23.68-21.28-16.31-3.51-22.27-4.06-28.86,12.22-.18-8.3,7.55-12.43,12.35-19.39,4-5.17,5-12.42,12.51-13.09,33.29,1.94,25.85,17.8,26.88,30.74C458,117.16,461.43,120.58,458.22,124.57Z"/><path class="cls-8" d="M447.17,251.59c-18.85,21.15-59.61,51.22-51.64,75.7,2.88,3.13,3.83-11.61,5.15-13.5-2.44,24.23,3.7,22.37,4.81,1.2-1.43,17.65,3.11,19.95,5,2.1l-.09,10c5.18-2,2.31-11.79,8.95-19.37,3.52-16.17,4-13,16.15-20.81,16.61-8.2,36.85-28.54,38.86-40,1.71-6.09-11.8-5.7-15.87-5.39C453.37,242.24,451.76,248.14,447.17,251.59Z"/><path class="cls-7" d="M454.89,188c-2.86,12.87-2.82,27.08-4.11,40.68,0,13.25-5.8,18.29,7.56,18.77,7.07.17,24.7,3.47,22.17-3-2.33-21.54,4.23-41.26,2.66-62.87C476,154.6,458.49,170.68,454.89,188Z"/><path class="cls-8" d="M381.42,230.56c-3.09-15-7.8-14.84-12.83-25-1.32-6.25,2.69-19.71,10.16-17.15,5.51,4.38,5.17,13.41,7.61,19.91,2.42,10,7.74,17.58,14.29,25.53,5.46,6.7,2.57,19.33-7,17.51C385.37,248.56,383.87,238.09,381.42,230.56Z"/><path class="cls-10" d="M341.56,149.59c2.93-1.68,8.07,7.38,8.86,10.06,6.79-5.14,26.5-15.91,29.17-8.94,7,15.22,18.77,28.22,19.31,44.46-22-17.73-46.3-7.44-55-34.67-1-2.16-3.63-5.11-5.75-7.37C335.12,150.38,338.45,152.06,341.56,149.59Z"/><path class="cls-12" d="M345.6,162.45c-.57,6.26,11.31-3.43,15.4-3.71,6.47-1.73,13.2-5.47,19.85-3.57a392,392,0,0,1,18.39,40.16c-25.83-3.41-28.06,10.79-32.59,3.25-4.56-11.19-11.52-6.9-14.59-17.44-3.8-10.3-12.24-22.06-14.67-29.38C342.59,154.3,344.82,157.15,345.6,162.45Z"/><path class="cls-10" d="M347.82,166.12c1.86,2.76,3.65,5.56,5.45,8.35l5.36,8.41,5.3,8.44,2.63,4.23c.85,1.43,1.74,2.84,2.58,4.27-1-1.31-2-2.66-3-4l-2.87-4.09c-1.9-2.73-3.71-5.52-5.5-8.33s-3.51-5.65-5.17-8.54S349.33,169.09,347.82,166.12Z"/><path class="cls-8" d="M379.53,216.48c6.84-3.21-8.32-12.62-7.77-15.72,1.33-1.62,3.45-4.24,1.6-6.72-.9,2-4.63,3.79-5.72,6.49-.34-1.51-2.41-2.59-1.85-5.26.73-.76,1.38-6.15-1.25-3.69C354.49,195.71,373.05,218.9,379.53,216.48Z"/><path class="cls-8" d="M358.91,188.87c-.22,2.13,7.11,14.75,5.11,3.71C363.15,187.4,354.27,174.53,358.91,188.87Z"/><path class="cls-13" d="M437.71,105.37a6.32,6.32,0,0,1,3.94,2.63c-2.34-2.32-5.25-1.43-9-2.15C432.47,104.22,435.58,105.21,437.71,105.37Z"/><path class="cls-13" d="M422.8,110.56a1.62,1.62,0,0,1-.14,1.1,4.2,4.2,0,0,1-.59.93c-.45.56-1,1-1.42,1.5a2,2,0,0,0-.79,1.37c0,.49.54,1,1,1.53a3.39,3.39,0,0,1-1-.42,1.62,1.62,0,0,1-.76-.94,1.74,1.74,0,0,1,.14-1.31,5.1,5.1,0,0,1,.69-.93,18.94,18.94,0,0,1,1.58-1.35A3.56,3.56,0,0,0,422.8,110.56Z"/><path class="cls-13" d="M420.07,123.08a25.07,25.07,0,0,1,2.67-.12,22.32,22.32,0,0,1,2.66.1,4,4,0,0,1-2.66.9A4.15,4.15,0,0,1,420.07,123.08Z"/><path class="cls-13" d="M418.16,105c.51-.15,4.55-1.68,4,.33C420.73,105.44,420.72,104.69,418.16,105Z"/><path class="cls-10" d="M310.53,87c-1.81-3.5-8.66-4.89-9.61.43C301.14,93.58,316.09,98.4,310.53,87Zm-3.79,2h-.05S306.72,89.08,306.74,89.08Zm-.28,0Zm-1.74-1.19s0,0-.06-.08l.08.08Zm2.73,2h-.06l.06,0a7.79,7.79,0,0,1-1.16-.29c-.59-.59.84-.8,1.45-.14l.4.42A4,4,0,0,1,307.45,90Zm1,.4v0C308.47,90.43,308.45,90.46,308.47,90.35Zm-.07-.11h0S308.31,90.14,308.4,90.24Zm.43,1.11v0S308.84,91.34,308.83,91.35Z"/><path class="cls-10" d="M307.39,89.94c-.33-.09-.16,0,0,0Z"/><path class="cls-10" d="M336,56.13c-.18-3-6.63-1.87-4.32,2.22C330,66.74,340,63.94,336,56.13ZM334,59.39a.15.15,0,0,1,0-.07h0A.15.15,0,0,0,334,59.39Zm0-.12h0Zm-.43,1.9-.05.06C333.47,61.29,333.51,61.25,333.58,61.17Zm-.15-1.74a2,2,0,0,0,.58-.1,3,3,0,0,1-.09,1.07Z"/><path class="cls-10" d="M290,58.52a6.6,6.6,0,0,0,.92-1.2c2.39,3.24,3.4-4-.8-4.85-1.06.25-.59,1.4-2,5.47C288.49,58.6,288.78,59.17,290,58.52Z"/><path class="cls-10" d="M375.85,114l0,0,0,0c-2.31-2-5,6.64-1,6.08C376.33,119.3,378.72,116,375.85,114Zm.14,1.3h0s0,0,0,0Zm-.2-.26,0,.07-.27-.24Zm.07-1Z"/><path class="cls-10" d="M275.56,130.67c11.2,2.2,2.4-18.09-1.63-3.46C273.66,128.62,274.24,129.68,275.56,130.67Zm.8-3.34,0,0Zm.09,0h0Zm0,0h0Zm.63.88.13-.05A.27.27,0,0,1,277.09,128.15Zm.21-.09.12-.1A.53.53,0,0,1,277.3,128.06Zm.14-.12c-.24.2-1.13.58-1.13-.26,0,.06,0,.08,0,.11a.74.74,0,0,1,0-.39h0s0-.06.07-.11v0c.08,0,.16-.09,0,0C276.53,127,278.81,125.7,277.44,127.94Zm.16-.15.1-.13A.45.45,0,0,1,277.6,127.79Zm.22-.42a.51.51,0,0,1-.09.21Zm0-.13,0-.31C277.88,127,277.87,127.13,277.85,127.24Z"/><path class="cls-10" d="M276.43,127.32a.22.22,0,0,1-.05.08s0,0,.06-.08Z"/><path class="cls-10" d="M276.34,127.79c0,.1,0,.15,0,0Z"/><path class="cls-10" d="M307.54,263.3c.28-17.91-30.33-44.18-29.63-37.53,11,10.38,25.68,21,27,38-5.45-3.81-15.41-2.16-18.63,4.61-5.85,19.71,18.76,20.81,20.88,2.93,4.28,20.14-15.08,38.8-33.32,43.53,13.88,1.6,29.39-13.78,34.55-27.07C313.19,276.39,309.11,272.22,307.54,263.3Zm-3.81,10.82c-5.47,14.45-19.72,6.17-15.08-4.95C293.43,261.37,309.29,262.89,303.73,274.12Z"/><path class="cls-10" d="M467.81,48.64c-.42-.09-.6-.58-1.64-.13-2.8-2.8-2.64,4.94,2.1,3C468.91,51,469.28,49.61,467.81,48.64Z"/><path class="cls-10" d="M438.93,43.89c.06,0,.09-.09,0,0Z"/><path class="cls-10" d="M438.75,44h0Z"/><path class="cls-10" d="M439.09,43.73l0,0Z"/><path class="cls-10" d="M438.74,44c-.05,0,0,0,0,0Z"/><path class="cls-10" d="M438.73,44h0Z"/><path class="cls-10" d="M440.83,41.66a5.92,5.92,0,0,0-.85-1.25c-1.52-2.56-4.2,2.17-.86,3.27l0,0h0s0,0,0,.07l0,0a1.07,1.07,0,0,1-.19.18l.05,0a.34.34,0,0,1-.15.08h-.06s0,0,0,0C433.9,44.53,443.26,48.36,440.83,41.66ZM438.76,44Zm0,0,.05,0Zm0,0,0,0Zm0,0Zm0,0h0Zm.37-.67s0,0,0,0S439.2,43.35,439.19,43.31Zm-.49-1Z"/><path class="cls-3" d="M350.56,385.81c.59-2.78-9-1.81-4.95,3.78C347.42,392.09,353.25,389.63,350.56,385.81Z"/><path class="cls-3" d="M355.38,371.43c-.57-4.1-5,1-.79,2.65C355.27,373.67,356.09,373.55,355.38,371.43Z"/><path class="cls-3" d="M367.54,380.06c-1.63-2.54-4,3.51-.09,1.82C367.71,381.49,368.17,381.15,367.54,380.06Z"/><path class="cls-3" d="M363.93,391.59c.39-2.44-4.84-3.86-3.34,1C353.86,398,369,401,363.93,391.59Zm-2.14,3.17,0,0Zm0-.05h0C361.8,394.71,361.75,394.7,361.75,394.71Z"/><rect class="cls-7" x="504.32" y="32.85" width="217.38" height="434.29"/><path class="cls-10" d="M562.12,60.11q4.39-.64,8.82-.87c-1.25,9.57,4.51,13.84,2.38-.09,6.89,1.12,15.18-2.66-.05-1.82.78-7.47-2.56-8-2.28.19C569.44,57.94,559,58.15,562.12,60.11Z"/><path class="cls-10" d="M600,161.38l8.77-1.33c-.22,1.65,1.27,15.19,3.35,7.11.66-1.27-2.34-7.1.23-7.65,6.92,0,8-5-1.29-2.23-.05-8.18-4-12.88-2.53.49C607.09,158.38,595.41,159,600,161.38Z"/><path class="cls-10" d="M712.63,131c-1.34.1-2.15,1.24-4.13,2.09-.13-.28.57-5-1.43-3.2-.75.78,1.07,3.84-1.38,4.26-6.94,1-4,3.14,1.17,1.28-.45.72,1.63,7.15,2.26,2.55.49-1-2-3,.67-3.71C710.38,133.71,714.54,132.56,712.63,131Z"/><path class="cls-10" d="M602.86,279c6.48,1.4,30.1.32,27.56-3.77-45.49,8.61-83.16-19.86-84.62-64-1.51-1.8-1.37,1.68-1.19,3.93A67.34,67.34,0,0,0,602.86,279Z"/><path class="cls-6" d="M721.7,298.55v168.6H504.32V78c25.74,9.87,41.15,36.36,41.17,63.87-.08,19.57-8,37.55-10.42,56.9-6.53,50.22,12.56,95.06,66.72,102.22C642,306.81,682.87,291.73,721.7,298.55Z"/><path class="cls-14" d="M721.7,359.86c-143.12,7.51-142.77-19.12-217.38-53.68v161H721.7Z"/><path class="cls-6" d="M519.94,448.15c-4.32-2.51-5.76,5.37.69,6.31C523.9,454.17,523.79,449.07,519.94,448.15Zm-.54,3.41Zm.76.18a.46.46,0,0,1,.08.23l-.24-.07A.81.81,0,0,0,520.16,451.74Zm-.57-2.69a1.51,1.51,0,0,1-.19-.14Z"/><path class="cls-6" d="M517.93,434.06c2.88.33,4.71-6-.5-4.87C514.53,427.38,515.18,432.82,517.93,434.06Z"/><path class="cls-6" d="M519.32,433.34l-.21.27Z"/><path class="cls-6" d="M537,426c-2.09-1.87-6,2.59-2,4.22.26.92.14,3.13,2.72,2.67C540.47,432.06,540.73,427.75,537,426Z"/><path class="cls-10" d="M528.68,439.46h0Z"/><path class="cls-6" d="M529.94,441.15a1.55,1.55,0,0,0-1.24-1.68h0l-.14,0h.08c-.28,0,0-.11-1.09,0,.74-2-4.47-2.32-1.49,2.13C526.54,443.24,529,444.94,529.94,441.15Zm-3.11,1,.31.14Z"/><path class="cls-10" d="M528.68,439.46h0Z"/><path class="cls-6" d="M546.91,453.27c-.26-.24,0-.08-1.24-.52,3.44-3.24-2-5.29-3.23.54C541.63,455.63,548.84,458.89,546.91,453.27Z"/><path class="cls-6" d="M556.6,437.59c-3.11-6-7.23,6.19-.27,1.71A2.1,2.1,0,0,0,556.6,437.59Z"/><path class="cls-6" d="M534.75,448.53c-1.11-.22-2.24-.06-3.87,1.22l.25-.2C525.67,452.6,539.1,453.16,534.75,448.53Z"/><path class="cls-15" d="M653.62,204c1.09,8.74,9.54,15.27,18.64,16.3,23.79,1.75,17.82-41,11.81-51.75-3.14-10.13-19.89-6.28-25.92-.2C651.57,177.91,652.14,193.94,653.62,204Z"/><path class="cls-5" d="M659.06,260.74c-28.51,6.52-25.52,7.67-31.2,28.13-5.4,20.05-16.93,37.21-11.09,58.14,2.72,8.86,2.89,24.59,13.14,23.87,40.9-1.33,70.47,3.53,80.76-2.27,9.87-6.21,21.39-35.43,20.43-41.26C724,306.18,712.05,284.61,717.32,261c4-20-22.1-17.88-31.28-6.59C677.46,259.42,668.85,258.64,659.06,260.74Z"/><path class="cls-16" d="M719.69,357.84c-13.54-10.55-24.23-25.88-40.81-31.68-24.77-8.42-44.47,4.84-55.85,24.61-3.57,4.23-5.35,3.61-2.83,10.14,3.32,13,7.39,9.2,19.66,9.87,18.07.14,32.95.2,52.86.35C704.65,372.24,714.27,369.87,719.69,357.84Z"/><path class="cls-17" d="M618.36,403.31c3.17,3.2,8.19,2.87,12.44,5.43,9.81,7.26,19.75,17.29,32.65,14,2.46-1,3.38-2.21,5.35-4.81,9.32-15.6,29-4.3,38.84-17.56,13.56-16.93,5.75-19.9-2.38-35.34-10.78-20.77-35.84-22.51-55.13-16.1-10.78,5.9-18,17.51-22.45,29.11C624.63,391.14,612.21,395.7,618.36,403.31Z"/><path class="cls-15" d="M668.83,158.33c4.36-3,5-9.12,5.29-14.49,17.31-9.32,21.67,23.08,22.82,34,3.86,11.7,7.09,20.49,4.17,32.57,4.58,13.71-3.46,24.13-16.75,25.51,11.28-19-5.09-25.61-6.13-41.34C674.65,174.16,684.62,168.22,668.83,158.33Z"/><path class="cls-15" d="M658.39,144.68c-12,8.88-10.31,26-13.12,39.65-4.23,8.69-10,20.59-.52,28.15,2-5.91,5.61-.13,8.07,3.2,19.1,12.53,3.24-13.29,5.13-21-.5-15,7.65-26.6,15.55-38.6C681.16,140.11,667.66,139.87,658.39,144.68Z"/><path class="cls-18" d="M719.15,270.28c-19.67,56.47-41.77,31.34-37.09,19.84,3.86-10.88,14.61-24.32,21.79-27.95C709.7,259.47,720,262.37,719.15,270.28Z"/><path class="cls-18" d="M644.41,276.78c11-1.45,18.14,12.91,12.59,22.68C648.24,320.49,600,281.2,644.41,276.78Z"/><path class="cls-5" d="M686.5,203c60.58-4.73,43.53,34.62,33.12,71-19.63-13.27-41.17,8.72-62.13,6-15-3.51-38.08-4.23-37.24-10.81-4-39-1.64-78.6,45.23-62.41C672.64,208.57,679,203.86,686.5,203Z"/><path class="cls-18" d="M658.6,210.88c-1,10.52,10.73,20.16,18.61,9.83,2.88-8.27,2.68-22.3.89-29.77-2.76-4.07-8-5.56-13.13-5.15C654.54,186.26,659.86,204.53,658.6,210.88Z"/><path class="cls-19" d="M678.61,192c-18.18-19.69-29.29,9.15-10.93,19.37,4,2.74,6.24,5.44,8.91,10.12C680.38,215.29,679.25,198.15,678.61,192Z"/><path class="cls-18" d="M658.71,195.6c13,20.5,32-18.39,24.52-30.65-2.52-5.76-8.87-8.17-15.22-7.82C649.93,159.28,653.23,184.85,658.71,195.6Z"/><path class="cls-15" d="M671.05,173c.55,10,12.94,15.24,22,12.08-5.85-4-4-12.21-5.66-19-1.11-7.34-10-13.74-16.52-9.21C669.2,161.8,670.37,167.21,671.05,173Z"/><path class="cls-15" d="M670.52,157.86c-5.8,4.23-12.53,10.85-12.32,19.38a20.13,20.13,0,0,1,.5-10.19,33.48,33.48,0,0,0-4.54,18.85C641.73,158.21,676.35,139.52,670.52,157.86Z"/><path class="cls-10" d="M637.55,198.18c6.81,1.15,12.55,8.07,15.87,14.45,12.36-7.56,29.27-6.8,43.66-4.39,3.91,3.22,4.84,10.31,7.61,15-18.26-1.73-36.62,3.56-55,1.61C623.64,216.6,583.57,191.45,637.55,198.18Z"/><path class="cls-2" d="M697.39,269.73c-7.08-3.84-15.8-3.19-24.13-3.72-25.64-2.26-18.3,9.19-30.24-3.77-32.65-12.73-31.54,8.14-32.3-25.23,0-33.8-4.72-39,8-37.47,13.1.64,27.13,4.13,32.41,16.91,71.43,7.68,53.74-6,46.83,54.14C697.86,270.07,697.48,270.25,697.39,269.73Z"/><path class="cls-16" d="M651.27,268.71c1.31-17.12,2.59-34.24,3.25-51.39-1.19-.29-2.82.29-4.14-1.82C650.75,229.45,643.76,272.28,651.27,268.71Z"/><path class="cls-16" d="M654.92,256c13.16-2.16,28.07-1.07,41.44,2.2,2.62-25.51,7.54-18.53-17.11-23.18C650.46,234.22,656.71,232.46,654.92,256Z"/><path class="cls-18" d="M678,271.37c-16-10.72-58.36-28.53-18.95-1.34-4.37-2.93-12.71,1-14.89-5.8a3.59,3.59,0,0,0-3.09-2.06c1.76,5,.27,12.34,6,15.9,0,14.92,14.95,4.18,21.53,12.94,10.85,12.34,12.77,22.05,29.82,16.29C715.64,299.7,683.82,276.82,678,271.37Z"/><path class="cls-5" d="M642.11,269.19a18,18,0,0,0,7.76,4.47c2.86,1,5.89,1.64,8.73,2.91a61.91,61.91,0,0,1-9.05-2,17.58,17.58,0,0,1-4.24-2A10,10,0,0,1,642.11,269.19Z"/><path class="cls-5" d="M646.41,277c1.87.76,3.62,1.61,5.41,2.4s3.58,1.56,5.39,2.46a18.62,18.62,0,0,1-10.8-4.86Z"/><path class="cls-18" d="M626.78,264.91c-.58-4,1.17-8.24-1.74-12.07.9-5.14-1.31-4-2.25-9-.92-3.06-5.26-1.13-3.42-4.9,3.66-2.43,5.56-10.48-1-5.34-39,33.35,9.08,86.64,34,72.48,10.54-11.58-20-26-27.11-31C624.11,272.43,627.69,268.77,626.78,264.91Z"/><path class="cls-5" d="M612.6,249.09a23.21,23.21,0,0,1,2.67-4.33,23.48,23.48,0,0,1,3.47-3.73,22.5,22.5,0,0,1-2.67,4.33A23.09,23.09,0,0,1,612.6,249.09Z"/><path class="cls-5" d="M618.71,253.36a7.28,7.28,0,0,1,1.82-3.43c.84-1,1.69-1.82,2.62-2.77a7.53,7.53,0,0,1-1.85,3.41C620.46,251.55,619.61,252.4,618.71,253.36Z"/><path class="cls-5" d="M622.53,257.71a7.75,7.75,0,0,1,1-2.11,7.61,7.61,0,0,1,1.54-1.76,4.28,4.28,0,0,1-2.53,3.87Z"/><path class="cls-18" d="M669.06,364.22a397,397,0,0,0,6.76,66.31c6.07,4.45,19.19,2.71,21.08-5.17,7.33-24.53,7.38-50.87-1.18-74.6C678.7,336.78,666.11,343.53,669.06,364.22Z"/><path class="cls-18" d="M644.29,430c1.43,4.52,6.87,3.21,11.4,3.15,3.18-.56,7.27.88,7.94-3.7.37-9.72.41-19.32.69-29-1.54-17.53,8.25-55.22-10.74-56.13C620.62,344.17,636.54,416.69,644.29,430Z"/><path class="cls-15" d="M678.19,416.41c5.81-3.07,19.82-3.53,19.94,5.53-3.76,8.53-1.79,18.63-4.37,27.92-1-2.63-15.65-.75-17.48-3.08C675.08,428.23,667.58,419.83,678.19,416.41Z"/><path class="cls-15" d="M649.25,420.92c23.43-6,16.67,12.75,16.33,27.5-.49,2.35-4.79.41-7.61.65-17,.33-10.59.17-15.7-11.56-2-1.32-.64-2.43,0-5.17C636.83,426,642.89,422.21,649.25,420.92Z"/><path class="cls-5" d="M643.1,445.3c-.75,26.34-10.28,17.32-8.32,32.26,3.77,3.74,31.7,2.83,32-.86C678.35,427.61,647,434.33,643.1,445.3Z"/><path class="cls-10" d="M663.93,478.75c16.76-9.11-30.52-11.44-29.51-4.22C632.42,483.2,660.31,478.64,663.93,478.75Z"/><path class="cls-20" d="M663.38,478.81c-8.31-3.2-18.91-5.92-27.3-.16C644.32,480.05,654.61,479.86,663.38,478.81Z"/><path class="cls-5" d="M674.08,438.58c16.5-9.63,23.85,12.53,21.61,25.73-.13,4.57,3.61,7.83,1.5,13-8.23,4.9-21.22,3.34-30.37.59-3.24-4.8-.79-12.8,1.42-18.17C670.44,453.22,667.3,443.94,674.08,438.58Z"/><path class="cls-10" d="M695.17,478.61c2.58.09,4.18-7.48,1.09-8.33-7.83.34-31-6-30.62,3.51C663.56,483.06,692,480.46,695.17,478.61Z"/><path class="cls-20" d="M695.17,478.61a7.33,7.33,0,0,0,.91-.39c-8.48-2.35-20.94-7.75-29-.12C675.38,480.59,686.94,481.49,695.17,478.61Z"/><path class="cls-5" d="M636.52,304.58c12.11-6.75,26.27,1.28,39.66-.9,39.63-13.79,28.65,59.82,39,78.91-2.39-.93-4.64-3.37-6.14-5.85-8.52-17.93-13.72-14.33-26.87-15.46-11.66-6.12-10.55-.17-19.24,2.48-6.42.23-12.85-4.39-19.21.09-12.93,7.54-12.05,27.27-26.94,32.22C640.37,324.4,622.37,312.73,636.52,304.58Z"/><path class="cls-5" d="M660.33,174.06a3.26,3.26,0,0,0-2.72,1.72c1.41-1.2,5,.36,7-.33C665.55,174,661.5,173.83,660.33,174.06Z"/><path class="cls-5" d="M666,181.52a2.07,2.07,0,0,1-.09,2c-.28.61-.67,1.12-.94,1.62a1.79,1.79,0,0,0-.32,1.39,5.4,5.4,0,0,0,.94,1.5,2.8,2.8,0,0,1-1.66-1.18,2,2,0,0,1-.2-1.17,3.06,3.06,0,0,1,.37-1,12.72,12.72,0,0,1,1.15-1.53A2.85,2.85,0,0,0,666,181.52Z"/><path class="cls-5" d="M663.75,191.52c1,.17,1.88.39,2.77.55s1.77.28,2.78.49a4,4,0,0,1-3,.49A4.12,4.12,0,0,1,663.75,191.52Z"/><path class="cls-21" d="M632.11,279.73c6.19,3.13,14.39,5.91,18.17,13"/><path class="cls-21" d="M687.52,280c5.54,2.28,12.89,5.15,15.4,11.84"/><path class="cls-22" d="M665.72,475.16c-.79-10.28,4.41-19.57,4.29-30.7"/><path class="cls-10" d="M670.09,59.76c36.64,42.21-23.07,67.71-36.44,45.1,39.15-.79,37.12-48.07,3.67-47.8C645.32,49.45,662.9,53,670.09,59.76Z"/><path class="cls-4" d="M551.56,380c2-2.5,11-1.1,22.28-4.18,22.06-3.76,24.5-8.89,16.22-30.88.94,2.5-26.95,20.38-28.21,16.09,5.29-5.06,13.67-5.69,19.75-10.36,13-7.26,3.26-14.51-1-22.19a16,16,0,0,1-2.84-7.35c-17.32,11.52-42.2-25.47-37.73,38.41-3.2-.06-2.94-13.2-3.38-19.77.65-5.52,3.39-10.55,4.93-15.38-7,2.34-14.87,4.09-20,9.17-4.44,13.32,4.53,25.36,5.81,38C522.25,365.5,516,348,516.84,336.33c-4.46,2.16-6.3,6.41-8.73,10.23a14.44,14.44,0,0,0-3.79,5.44,12.48,12.48,0,0,0-.73,6.35,20.45,20.45,0,0,0,.73,3c2.27,7.12,8,13,11.92,19.17-7.1-2.23-9.37-8.35-11.92-14.34v39.08c3.73,2.28,8.86,2.61,15.79-.31-5.21,7.65-10.62,15.6-15.79,23.3v5.34c4.63-4.67,13.62-21.06,15.71-23.45,2.85,11.16,8.72,16.16,21.27,14,4.38-.23,7.66,1.25,11.43-.56,12.17-8.35,21.12-6.21,31.37-23.88-12.3-2.55-26.64-1.63-37.22-7.72,7,2.37,27.9,8.18,37.49,5.39,7.14-4.32,6.83-17.46,9.7-25.3-9.48,5.21-21,6.12-29.31,7.11C560.39,379.52,554.17,380.51,551.56,380Zm-18.38-1c-1,2.16-4.32-.29-4-1.77C529.68,372.93,533.62,376.79,533.18,379Zm9.12,10.05c-6.36,2.35-7.67-2.52-2-1.82C541.88,387.64,543.31,388.51,542.3,389.06Zm14.5,22.76c-1.42.9-3.79-.31-4.87-.83-.87-.42-3.86-3.38-4.46-3.38C550.82,407.61,554.75,410.05,556.8,411.82Zm-7.84-35c-4.73,1.91-4.87-4-.65-2.43A1.41,1.41,0,0,1,549,376.81Z"/><rect class="cls-9" x="28.3" y="32.85" width="217.38" height="434.3"/><path class="cls-12" d="M103.8,81.14c-5.25,2.57-11.32,3.57-15.92,7.17a26,26,0,0,0-7,9.36c-5.08,10.49-6.5,22.32-9.44,33.6s-8,22.85-17.85,29.11c-7.4,4.7-16.47,5.72-25.32,5.25V32.85h89.87a67.21,67.21,0,0,0,1,16C121.31,61.8,116,75.16,103.8,81.14Z"/><path class="cls-12" d="M245.68,328.32c-58.42-6.16-81.73-47.73-127.11-67.5-36.22-16.91-77.85,5.76-90.27,20.6V467.15H245.68Z"/><path class="cls-23" d="M245.68,405.33c-24.19,6.34-50.44,6.46-75.43,3.2-38.81-5-76.31-17.41-114.92-23.79a141.9,141.9,0,0,0-27-2.05v84.46H245.68Z"/><path class="cls-5" d="M88.14,237.13c40.85-.4,44.81,5.64,30.39-21.27-8.25-3.27-18.45,1.51-27.06-2.63C89.25,217.52,89.54,232,88.14,237.13Z"/><path class="cls-24" d="M36.5,328.14c-5.14,17.72,21.62,20.79,28.62,9.88,2-10.82,4.6-21,6.37-31.77-2.76-9.39-19-10-26-6.37C37.3,306,39.26,318.87,36.5,328.14Z"/><path class="cls-24" d="M177.44,332.81c3,8.76-4.39,12-11.8,9.87-14.6-3.14-9.69-40-7.55-47.75,5.81-13,16.81-8.41,15.15,3.94C173.18,310.38,174.93,321.29,177.44,332.81Z"/><path class="cls-15" d="M80.46,320.47c-67,35.34-31,83.14-4.16,84.54,15.58.35,27.81-12.29,42.52-16.36,13.47-4.06,27.42-.11,40.55-6.26,8.89-7.49,4.62-22.41-.1-31.48-3-4.32-8-4.16-12.7-7-7-6.43-7-20.74-17.47-25.52C114.08,308.85,94.36,310.7,80.46,320.47Z"/><path class="cls-15" d="M142.81,358.87c12.88-9.43,28.95-13.53,45.36-14.92,37.8-7,42.86,27.48,17,44.93-38.38,25.68-68.52,21.44-100.31,29.28-8.57,1.71-22.11,9.44-25.64,3.11-2.09-6.31-2.32-15,2.35-20.4C104.76,391.45,122.27,373,142.81,358.87Z"/><path class="cls-25" d="M80.72,401.76c22.83-10.32,41.76-28.36,62.09-42.89"/><path class="cls-15" d="M137,360.37c-11.31-67.79-61.32-49.11-57.11-27.66,2.88,45.87,36.25,70.3,45.73,96.11,2.66,15.27,24.74,7,30.75-1.48,1.61-8.87-6.58-16.74-9.3-25.38C141.57,388.42,140,374.67,137,360.37Z"/><path class="cls-25" d="M151.49,411.27c-12.51-21.94-11.41-49.08-20.6-72.5"/><path class="cls-25" d="M80,335.34c2.5,30.47,21.92,56,39.16,80.33"/><path class="cls-15" d="M46.72,262c-4.66,31.34-13.19,41.4-1.08,47.61,12.42,6.66,26,2.19,38.86,8a109.51,109.51,0,0,0,49.43,6.57c12.74.76,9.81-15.77,14.79-23.09,7.76-3.39,16.73-4.51,25.28-5.92,1.54-20.64-2-53.12-23.46-58.41-4.25-1.34-6.55-3.57-11.17-5.56-3.48-.5-7.16,1.09-11.44.71C99.92,228.53,50.2,234.43,46.72,262Z"/><path class="cls-7" d="M120,213c.51,12.84-4.82,29.83,6.8,39.64A18,18,0,0,1,124,241.05c1.93,4.35,7.24,8.28,6.55,14.58a17.28,17.28,0,0,0-.41-16c1.9,2.43,5.22,3.2,8.29,3.45-8.59-5.53-2.61-14,4.14-4.08,0-3.12-2.74-5.47-5.22-7.38,2.81.56,4.63,2.32,8.34,2.92-.62-2.16-2.76-4.05-5.67-5.13-9.41-7-10.51-21.66-13.86-32.38-1-4.22-6.19-10.59-9-4.8C116.47,198.44,119.47,206.32,120,213Z"/><path class="cls-24" d="M97.67,236.78c1.55,7.59-1.1,17.17,7.12,23.23,6.87,2.33,18.95-14.92,16-20.79-3.68-15.36-.58-16.76-12.08-17.09C89.61,221.08,95.74,225.59,97.67,236.78Z"/><path class="cls-19" d="M117.16,223.5c-7.17-1.88-27.78-5.22-20.55,8.37,6.89,7.53,24.52,7.22,19.4,21C124.7,245.52,119.58,233.31,117.16,223.5Z"/><path class="cls-24" d="M94,224.79c26.88,28.68,34.09-20,21.31-36.61-9.16-13-28.52-10.68-32.08,5.22C82.29,204.15,88.13,215.55,94,224.79Z"/><path class="cls-26" d="M102.75,210.09a2.85,2.85,0,0,1,.6,1.22,9.73,9.73,0,0,1,.24,1.31c.13.87.17,1.74.28,2.57a4.64,4.64,0,0,0,.62,2.2c.38.53,1.32.44,2.17.22a3.12,3.12,0,0,1-1.2.66A1.66,1.66,0,0,1,104,218a4.23,4.23,0,0,1-1.08-2.65,18.12,18.12,0,0,1-.05-2.65A10,10,0,0,0,102.75,210.09Z"/><path class="cls-26" d="M105.93,224.46a11.34,11.34,0,0,0,3.23-.69,11.68,11.68,0,0,0,2.82-1.72,4.19,4.19,0,0,1-6,2.41Z"/><path class="cls-26" d="M114.25,201.67c-.73-3-11.46.21-8,2.21C107.74,202.38,112.16,201.24,114.25,201.67Z"/><path class="cls-26" d="M90.29,208c-.61-2.69,9.71-5.3,8.3-1.6C96.51,205.75,92,206.61,90.29,208Z"/><path class="cls-7" d="M99.86,169.08c-32.8,2.55-25.65,44.86-34.6,67.43-2.22,3.74-1.12,4.33.07,5.18,6.28,5.38,3.88,26.57,4.84,34.45.5,4.5,4.86,5.67,8.83,3.34,16.43-11.9,11.42-65.15,15.07-75.75,5.39-34.18,13.35-8.6,16.55-22.43C113.1,174.39,107,168.68,99.86,169.08Z"/><path class="cls-7" d="M112.68,193.63c5.71,5.62,13,12.09,14.13,21.36C125.69,157.88,93.26,171.7,112.68,193.63Z"/><path d="M161.55,282.89a1.94,1.94,0,0,0,0,.24V283s0,.11,0,.13V283a.88.88,0,0,0,0,.16.43.43,0,0,0,0,.05l0-.15a.55.55,0,0,0,.05.22.29.29,0,0,0,.07.12l0,.06-.08-.12a.49.49,0,0,0,.11.14h0l.11.09h0l.07,0,.07,0h0l.15,0h0l.15,0h0l.14-.06h0a.71.71,0,0,0,.14-.1,1.21,1.21,0,0,0,.1-.14s0,0,0,0,.06-.13.08-.17l-.06.14h0l.07-.16v0a.19.19,0,0,0,0-.07,1.52,1.52,0,0,0,0-.21l0,.17s0-.13,0-.2v-.07l0-.22s0,0,0,0a1.42,1.42,0,0,0-.08-.18v0l.07.16,0-.08a.62.62,0,0,0-.14-.22h0l-.14-.11h0l-.17-.07h0l-.18,0h0l-.18,0h0l-.17.07h0l-.14.11h0l0,0-.1.13a.46.46,0,0,0-.08.25.28.28,0,0,0,0,.18.43.43,0,0,0,.08.24h0l-.09-.32h0l0,.17a.43.43,0,0,0,.11.21.29.29,0,0,0,.11.11.43.43,0,0,0,.21.11h0l-.27-.16h0a.66.66,0,0,0,.29.17.73.73,0,0,0,.36,0l.18-.08-.16.07,0,0h0a.77.77,0,0,0,.17-.07l-.16.07.05,0-.18,0h0l-.18,0h0l-.16-.07,0,0-.13-.1.15.11-.14-.1,0,0-.11-.13,0,.07-.07-.15,0,.09,0-.17a1,1,0,0,0,0,.19v0l0-.17V283l0-.16,0,.16,0-.15a.19.19,0,0,1,0,.07l.06-.14,0,0,.09-.11h0l.11-.09h0l.14-.06h0l.15,0h0l.15,0h0l.14.06,0,0,.11.08h0l-.11-.09-.14-.05h0l.13.05-.08-.05.1.08-.11-.08.11.08-.08-.08-.09-.07-.12-.05H162a.3.3,0,0,0-.18,0,.21.21,0,0,0-.1.06.16.16,0,0,0-.08.08.21.21,0,0,0-.06.1.3.3,0,0,0,0,.18Z"/><path d="M162.25,285.38l-.16.09,0,0h0l-.09.07.19-.11-.17.08,0,0,.12-.05a.39.39,0,0,0-.17.09.2.2,0,0,0-.09.09l0,.05.08-.1a1.34,1.34,0,0,0-.11.14v0a1,1,0,0,0-.07.15l.14-.24a.63.63,0,0,0-.14.24l0,.14h0a.86.86,0,0,0,0,.17.76.76,0,0,0,.06.16s.09.11.1.13l0,0,.13.1,0,0,.16.07.07,0-.14-.06a.54.54,0,0,0,.3.08h.15l.23,0,.07,0,.16-.07h0l0,0,0,0h0l.13-.1h0l0,0a.58.58,0,0,0,.11-.15.87.87,0,0,0,.07-.17,0,0,0,0,0,0,0l0-.18h0l0-.2v0c0-.05-.05-.13-.08-.19a1.71,1.71,0,0,0-.11-.14l.1.13-.12-.16,0,0-.05-.05h0l-.14-.1.13.1-.14-.14.11.15-.11-.15-.15-.11-.17-.07h0a.49.49,0,0,0-.24,0l-.19,0L162,285l-.15.11a.51.51,0,0,0-.15.23.48.48,0,0,0-.05.18.7.7,0,0,0,.05.37.57.57,0,0,0,.15.23.43.43,0,0,0,.19.13.85.85,0,0,0,.41.12l-.19,0a.65.65,0,0,1,.2.05l-.16-.07.16.07-.15-.07.1.06-.14-.1.07.06-.1-.13,0,.05-.07-.15s0,0,0,0l0-.17v0l0-.17a.08.08,0,0,1,0,0l.06-.15,0,0,.1-.12-.06.05.12-.1a.24.24,0,0,1-.08.06h0l.14-.06-.13,0h0l.16,0h0a.67.67,0,0,0-.3.08l.14-.06h0l.15,0h-.1l.15,0h-.05l.13.05,0,0,.11.09,0,0,.08.11v0l0,.13v.12a.35.35,0,0,0,0-.14l-.06-.13a.44.44,0,0,0-.08-.11l.13.24a.09.09,0,0,0,0-.05l0,.14v0l-.07.25,0-.06a.45.45,0,0,0,0-.2l0-.13a.61.61,0,0,0-.05-.12l.07.25a.41.41,0,0,1,0-.11l-.06.22.06-.14,0,.1.09-.17,0-.09a.23.23,0,0,0,0-.14.12.12,0,0,0,0-.09.24.24,0,0,0-.07-.12l-.08-.06-.08,0a.26.26,0,0,0-.15,0,.28.28,0,0,0-.13,0Z"/><path d="M163.92,282.32a2.07,2.07,0,0,1,.69,1.79c0,.11,0,.22,0,.33s0,.13,0,.19,0-.17,0,.07a4.71,4.71,0,0,1-.2.76,5.32,5.32,0,0,1-.3.69c-.13.3-.26.66-.39,1a.63.63,0,0,0,1.06.62,2.52,2.52,0,0,0,.48-.5,2.63,2.63,0,0,0,.3-.44,5.33,5.33,0,0,0,.39-1,4.62,4.62,0,0,0,.12-2,3,3,0,0,0-1.78-2.29.45.45,0,0,0-.52.25.46.46,0,0,0,.18.55Z"/><path class="cls-10" d="M85.25,264c3.53-5.35,10-.67,15.61.87,12.14,3.75,25.72,9.47,29.23,22.88,4-13.41,37.69-30.84,43.29-18-10.32,11.52-23.41,19.84-37.32,27.63-10.91,3.94-21-11.85-28.85-16C99.83,274.64,90,273.47,85.25,264Z"/><path class="cls-6" d="M120.91,325.76c-58.49-26.21-42.58-7.5-35.78-62.35,15.81,5.08,36.6,16.76,43.55,27.34.35.48-.67,2.16,1.76,1.58,1.08.14,1.89-.28,2.42-2.27,8.93-13.68,26.27-17.33,41.27-21.05-3.22,16.81-1.32,45.95-7.44,45.6-14,4.33-29,3.35-40.3,12.32C125.09,327.13,122.53,327.32,120.91,325.76Z"/><path class="cls-5" d="M132.65,291.25c-.91,1.11-1,.94-3.79,1.26-1.87,7.34-3.28,16.2-4.6,24.45.33,2.7-3.09,10,0,10.14.67-.6,3.37,1.14,3.52-1.9C128.75,313.83,130.56,302.84,132.65,291.25Z"/><path class="cls-5" d="M158.35,297.08c-.64-2.33-7-6.07-8.21-3.55,3.67-.83,9.28,2.82,7.47,8.05-6.21,13.59-20-2.69-7.62-8.07C131.87,301.87,160.38,317.77,158.35,297.08Z"/><path class="cls-5" d="M147.94,298.68c-.06,1.74,3.33-.64.57-1.71C148.28,296.92,147.83,297.74,147.94,298.68Z"/><path class="cls-5" d="M152.67,297.78c1.78,2.53,1.55-3.63-.28-.93A8.59,8.59,0,0,1,152.67,297.78Zm.93-1h0Z"/><path class="cls-5" d="M150.14,302.91c-6.68-4.72,2.14,6.9,5.73-2.36C155.43,296.29,155,304,150.14,302.91Z"/><path class="cls-24" d="M40.51,327c6-4.86,15.5-4.86,23.16-7.63,9-2.14,13.88-7.77,22.1-12,24.34-8.24,44.7-3.28,8.91,5.76,6.52-.76,27.6-7.15,25.45-1.05-7.4,2.64-12.38,3.21-18.94,6.84,13.65-3.6,29-6.45,6.28,4.81,20.55-5.83-10.5,6.67-16,9.53-4.32,2.13-7.67-.08-12.25,2.54-7.64,4.94-13.59,10.28-22.39,13.75-14.32,4.41-29.83-15-14.48-23.84"/><path class="cls-24" d="M171.15,327.93c-10.61-5.32-17.41-17.11-27.38-24.57-2.86-1.48-7.47.14-3.67,4,1.49,3.24,8.43,10.61,4.72,11.45-3.72-2.8-22.45-10.08-20.08-1.61A90.7,90.7,0,0,1,140,325c-12.36-6.1-33.15-10.31-9.87,2.51a79.77,79.77,0,0,0-9.28-4.56c-.51,6.45,29.74,18.81,32.69,19.61,4.81,1.66,6.54,6.25,12.19,6.69C181.64,351.8,181.59,333.49,171.15,327.93Z"/><path class="cls-26" d="M140.8,325.37a2.52,2.52,0,0,1,1.29.16,5.51,5.51,0,0,1,1.12.54,5.05,5.05,0,0,1,1.75,1.75,5.85,5.85,0,0,1-2.28-.91,10.81,10.81,0,0,1-1-.7C141.4,326,141.13,325.68,140.8,325.37Z"/><path class="cls-26" d="M129.72,327.35a53.59,53.59,0,0,1,7.33,2.49,21.88,21.88,0,0,1,6.6,4.08c-2.32-1.16-4.64-2.16-7-3.17A52.39,52.39,0,0,1,129.72,327.35Z"/><path class="cls-26" d="M94.9,312.9A12.33,12.33,0,0,1,93,314.05a3.43,3.43,0,0,1-2.32.32,8.48,8.48,0,0,1,1.91-1.23A3.16,3.16,0,0,1,94.9,312.9Z"/><path class="cls-26" d="M101.23,318.58a5.32,5.32,0,0,1-1.59.89,13.22,13.22,0,0,1-1.7.51,16.68,16.68,0,0,1-3.5.45A8.41,8.41,0,0,1,97.72,319,18.51,18.51,0,0,1,101.23,318.58Z"/><path class="cls-26" d="M108,323.25a57,57,0,0,1-7.09,2.78,18.6,18.6,0,0,1-7.59.79,64.88,64.88,0,0,0,7.31-1.75A46.41,46.41,0,0,1,108,323.25Z"/><path class="cls-9" d="M131.57,426.14c-2.79,2.73-9.88.67-7.33,7.34,2.88,6,2.61,12.43,4.44,18.86a180.1,180.1,0,0,1,8.44,18.15c6.19,8.87,36.71,7.93,39.21,0,5-11.47-6.57-18.91-10.9-28.68-3.05-10.21-2.93-19.87-4.23-30.46-7.66-10.51-34.1-2.16-26.32,13C133.5,424.38,132.59,425.32,131.57,426.14Z"/><path class="cls-10" d="M163.67,466.12c-20.45,1.17-28.21-5.22-36.28-19.77.27,5.58,3.29,9.49,6.07,14.87,1.78,4.37,2,8.74,6.06,11.71,11.89,6.06,43.43,7.35,37.26-12C173.62,464.46,168.48,465.76,163.67,466.12Z"/><path class="cls-9" d="M23.13,425.87c-3.64-5.38,1.28-15,4.19-20.47,6.43-11.75,18.59-9,29.62-8.89,11.06-6.57,17.45-8.63,27.53-1.28,5.66,4.44-1.22,4.39-1.84,8.52,1.74,3.91-5.49,4.7-2.87,8.45,3.93-.08,8.22.43,8,6.3,1.68,20.36-17.23,9-28.63,10.83C46.7,428.45,32.93,437.52,23.13,425.87Z"/><path class="cls-10" d="M72.85,390.45c-6.43-1.09-11,5.13-17.3,6.27-6.14-.14-12.67-1.83-19,.75-11.8,4.9-22,27.47-6.69,33.62,7.23-43,28.95-21.82,48.65-39.21A18.14,18.14,0,0,0,72.85,390.45Z"/><path class="cls-26" d="M157.46,316.59a9.85,9.85,0,0,1,2.4,1.67c.72.67,1.37,1.4,2,2.12a44.3,44.3,0,0,0,3.85,4.2l-.05,0a12.66,12.66,0,0,0,2.05.84c.74.25,1.49.52,2.22.83a10.36,10.36,0,0,1,2.13,1.13,3.46,3.46,0,0,1,1.48,1.85,3.65,3.65,0,0,0-1.71-1.47,14.24,14.24,0,0,0-2.15-.82l-2.25-.66a9.72,9.72,0,0,1-2.31-.88h0l0,0a26.77,26.77,0,0,1-3.85-4.42c-.57-.77-1.13-1.54-1.74-2.28A13.37,13.37,0,0,0,157.46,316.59Z"/><path class="cls-26" d="M46.21,323.83a98.9,98.9,0,0,1,11.36-3.67,98.51,98.51,0,0,1,11.69-2.41c-3.77,1.3-7.6,2.35-11.44,3.38S50.13,323.1,46.21,323.83Z"/><path class="cls-10" d="M200.6,330.43h0Z"/><path class="cls-10" d="M201.89,329.34v0C201.89,329.3,201.87,329.26,201.89,329.34Z"/><path class="cls-10" d="M201.91,329.44a.27.27,0,0,0,0-.09A.37.37,0,0,0,201.91,329.44Z"/><path class="cls-9" d="M199.28,324.41c-1-.81-3.48-.51-2.71,2.12C195.76,340.63,213.63,328.75,199.28,324.41Zm2.45,4.58c0-.05-.08-.1-.07-.1S201.7,328.94,201.73,329Zm-2.15,1.15c-.07-.06-.12-.13,0,0Zm1.23.27-.08,0h.05l-.19,0v0h-.06c.32-.39.44-.21.66-1.93a2,2,0,0,1,.64.68l0-.07c0,.08.06.09.08.25s0,0,0,.16c0,0,0-.06,0-.09C201.87,330,201.65,330.24,200.81,330.41Z"/><path class="cls-10" d="M201.84,329.19h0l0,.15A.83.83,0,0,0,201.84,329.19Z"/><path class="cls-10" d="M201.88,329.34h0S201.89,329.35,201.88,329.34Z"/><path class="cls-9" d="M224.25,332.56c-.78-2.73-4.14-2.92-5,1.64C212.39,334,225.54,345.43,224.25,332.56Z"/><path class="cls-10" d="M61.59,74.61a45.57,45.57,0,0,0-6.28-4.3c.39-2.15,6-5,4.89-7.35-3.48-.54-4.54,7.62-8,5.72-6.84-3.51-5.68-.21.22,2.16C45.37,81.07,47.84,89,54.3,72,54.59,72,66,81.36,61.59,74.61Z"/><path class="cls-10" d="M235.78,37.4l.05.37c-.25-.28.44-.72-1-1.81l.31.24C226.34,32.84,235.33,53.73,235.78,37.4Zm-2.2,3.13Zm1.17-2.17.06-.15Z"/><path class="cls-10" d="M215.07,47.32c.06,1,2.84,1.31,2.17-1.18C222.1,47.16,214.79,38.26,215.07,47.32Zm1.87-1.45,0,0a.1.1,0,0,0,.05,0Zm-.79-2.22.27-.11a2.36,2.36,0,0,0-.28.12Z"/><path class="cls-10" d="M200.39,52.09a2.73,2.73,0,0,0-3.84-.72c-1-4.14-4.43,2-1.35,4.8,2,2.47,7.87-.72,5-4.38Zm-3.46,2.21h0l.09.06Zm1-.49c-.11-.1,0,0-.21-.26Z"/><path class="cls-10" d="M219,63.54c-.64.11-1.19-.45-2.3.88-3.56-4.38-1,12.84,3.74.73A1.81,1.81,0,0,0,219,63.54Zm-.72,2.67c-.09-.08,0,0-.17-.2a1.63,1.63,0,0,0,.17.2Zm.19.14,0,0Zm.77-.41.07-.08-.07.08Zm-1.12.15a2.22,2.22,0,0,1-.24-.29Z"/><path class="cls-10" d="M233.81,54.27c-.89.32-2.47-1.31-3.27.52-.43,1,2.64,3.73,4,1C234.47,55.45,235,54.93,233.81,54.27Zm-1.14,0h0Zm-.06,0h0l-.16,0Z"/><path class="cls-12" d="M245.68,105.51c-10.42-2.26-22.78-.38-31.5,5.79-16.67,13.39-2.52,22.2-9.6,31.17-11.46,11.69-30.34,15.63-23.35,34.05,2.8,7.33,7.9,11.8,13.42,17.39,11.26,10,14.94,23.94,17,38.53,2.3,34.25,23.58,43.13,34.06,30.16Z"/><path class="cls-10" d="M170.63,146.76l1.66-.66A5.17,5.17,0,0,0,170.63,146.76Z"/><path class="cls-10" d="M145.14,78.58l-.2-.11C145,78.42,144.93,78.75,145.14,78.58Z"/><path class="cls-10" d="M146.72,79a.05.05,0,0,1,0,0S146.74,79,146.72,79Z"/><path class="cls-15" d="M243.52,156.11a65.11,65.11,0,0,0-4.43-9l-.79-1.28a14.15,14.15,0,0,0,7.38.05v-4.23a21,21,0,0,1-8,3.13l-.82-1.23c3.69-.3,6.05-4,8.86-6.75v-5.3c-3.76,2.83-6.83,6.44-10.46,9.82-.78-1-1.59-2.07-2.42-3.07,6.07-2.6,10.85-8.84,12.88-15.52a20,20,0,0,0,0-12.88,13.38,13.38,0,0,0-7.43-7.65c-.27-2.63-3-4.19-4.44-6.66-1.27-4.61-5.85-4.81-9.65-2.85,11.19,1.26,7.24,9.06,7.37,16.26-.59,11.2-6.24,14.87-6.54,21.21-4.89-2.63-2.35-9.39-1.84-13.49,2-13.76,5.29-18.44-2-24.23-5.34-8.3-2.72-10.84-12.21-9.44,7.91,3,8.24,7.89,8,14.9-.26,5.34-1,25.56-4.6,22.71-.7-.68-2.14-.5-1.54-2.28-.58-8.23-1.53-15.49-2.47-23.75-1.62-8.52-5-17.91-12.2-22.59-1.6-1.59-2.75-3.5-5.57-2.49,2.23.77,1.94,4.57,2.23,6.57,1.47,4.21,3.56,7.76,4.62,12.49,1,3.57.44,6.7,1.41,10.49A20.29,20.29,0,0,1,200.24,114c-3-.64-4.51-4.76-5.52-9.24s-1.54-9.28-2.61-11.3c-3.28-10.29-6.68-20-13.64-28.57-2.31-2.61-5.27-2.42-8.7-3-1.82-.47-3.14-2.5-5.09-2.48C177.6,72.49,182.47,91.89,188.1,109c-7.63-4-11.28-13.38-16.89-20.13-7.4-6.69-14.68-18.41-24.8-13.28-1.24.26-3.84.07-4.4,2.08,8.55-5,26.33,22.31,29.8,26.25-4.32-1.1-7.68-4.76-12.18-6.49-7.46-2.93-26.9-4.15-27.29,3.93,4.18,3.73,8.92,7.76,11.41,13.25,1.92,1.46,4.54.58,7.18.66l-.07,0c12.22-.16,24.29-9.35,33.94-6.35-8.67,2.29-16.51,8.24-24.5,12.74-4.72,3.42-8,9.4-14.74,7.58,2.67,1.62,7.76.89,9,4.33,2.29,1.57,7-4.33,8.85-5.41,5.81-3.29,11.71-5.11,17.28-9.25l-.07.09c3.83-2,7.73-2.54,11.41-3.63,3.28-.66,4.43-2.17,6.67-.64a18.07,18.07,0,0,1-5.38,3.69C173.92,127.53,167.06,147,161,138.17c.23,4.12,4.8,4.78,7.78,6.35,1.95,1.93,3.06,1.56,5.2-.44,4.39-4.88,9.62-6,14.82-9.62,7.14-5.24,16.24-17.12,24.07-11.65-1.39,1.09-3.06,3.14-5,4.08-16.53,8.14-27.7,23.4-36,20.51,3.88,3.23,10.8,3.56,15.84,3.5,7.32-2.85,14.34-7.26,21.3-11.7,4.43-3.88,6.91-7.87,12.56-9.81,1,.85,2.3,2,3.63,3.23-4.83,1.16-7.75,5.57-11.84,8.58-17.46,13.36-15.41,21.59-28.07,21.42,5.87,2,13.79,4.6,18.62-1.26,3.72-2.57,7.63-4.43,10.21-8.7,4.76-5.39,13.43-9,13.81-17.34.58.61,1.16,1.22,1.73,1.84.8.89,1.58,1.79,2.34,2.71-9.69,8.14-17.21,21.92-30.18,25.86,7,2,17.5,1.15,22.21-5.58a19.64,19.64,0,0,1-1.8,1.62c4.8-6.18,11.12-14.72,11.79-19.33.62.85,1,1.35,2.1,3-3.22,9.71-11.47,20.57-23,22,6.35-.51,14.19.95,19-4.83,3.4-4.09,8.35-7,6.42-13.15,3.42,5.24,4.74,12.17,6.8,18.39l.26.06c1.51.23,1-2.43,0-5.54C245,160.23,244.11,157.88,243.52,156.11ZM231.19,136.4c-.93-1-1.9-2.07-2.89-3.07,7.29-5.22,11.65-19,10.7-27,2.54,3.76,2.74,9.51,1.95,14.15-.13,3.22-2.43,5.61-4.77,8.13C234.73,131.23,232.91,133.67,231.19,136.4Z"/></g></g></svg>