<svg id="Layer_1" data-name="Layer 1" xmlns="http://www.w3.org/2000/svg" xmlns:xlink="http://www.w3.org/1999/xlink" viewBox="0 0 1279 2412.12"><defs><style>.cls-1{fill:none;}.cls-2{clip-path:url(#clip-path);}.cls-3{clip-path:url(#clip-path-2);}.cls-4{opacity:0.18;}.cls-5{clip-path:url(#clip-path-3);}.cls-6{fill:#aee5ce;}</style><clipPath id="clip-path" transform="translate(-0.48 -7.98)"><rect class="cls-1" x="-0.02" y="7.48" width="1280" height="2413.11"/></clipPath><clipPath id="clip-path-2" transform="translate(-0.48 -7.98)"><rect class="cls-1" x="-0.02" y="7.48" width="1280" height="2413.11"/></clipPath><clipPath id="clip-path-3" transform="translate(-0.48 -7.98)"><rect class="cls-1" x="-9.02" y="0.48" width="1298" height="2421.11"/></clipPath></defs><g class="cls-2"><g class="cls-3"><g class="cls-4"><g class="cls-5"><g class="cls-3"><path class="cls-6" d="M44,173.53a407.91,407.91,0,0,1,120.37-38.65c24.91-3.89,65.15-5,89.93-5.07,118.91-.24,236.07,29.5,354.32,46.62a621.52,621.52,0,0,0,169.7,6.77Q845.41,168.62,909.84,131c50.64-25.23,101.25-50.85,152.2-73.66,71.7-32.11,144.5-47.1,217.44-49.38V2420.09H.48V198.61C15.63,189.2,31,180.06,44,173.53" transform="translate(-0.48 -7.98)"/></g></g></g></g></g></svg>