<svg id="Layer_1" data-name="Layer 1" xmlns="http://www.w3.org/2000/svg" xmlns:xlink="http://www.w3.org/1999/xlink" viewBox="0 0 1280 2413.02"><defs><style>.cls-1{fill:none;}.cls-2{clip-path:url(#clip-path);}.cls-3{clip-path:url(#clip-path-2);}.cls-4{opacity:0.18;}.cls-5{clip-path:url(#clip-path-3);}.cls-6{fill:#aee5ce;}.cls-7{fill:#bfe5cf;}</style><clipPath id="clip-path" transform="translate(0 -7.98)"><rect class="cls-1" x="-0.02" y="7.48" width="1280" height="2413.11"/></clipPath><clipPath id="clip-path-2" transform="translate(0 -7.98)"><rect class="cls-1" x="-0.02" y="7.48" width="1280" height="2413.11"/></clipPath><clipPath id="clip-path-3" transform="translate(0 -7.98)"><rect class="cls-1" x="-9.02" y="0.48" width="1298" height="2421.11"/></clipPath></defs><g class="cls-2"><g class="cls-3"><g class="cls-4"><g class="cls-5"><g class="cls-3"><path class="cls-6" d="M44,173.53a407.91,407.91,0,0,1,120.37-38.65c24.91-3.89,65.15-5,89.93-5.07,118.91-.24,236.07,29.5,354.32,46.62a621.52,621.52,0,0,0,169.7,6.77Q845.41,168.62,909.84,131c50.64-25.23,101.25-50.85,152.2-73.66,71.7-32.11,144.5-47.1,217.44-49.38V2420.09H.48V198.61C15.63,189.2,31,180.06,44,173.53" transform="translate(0 -7.98)"/></g></g></g></g></g><path class="cls-7" d="M1236.47,920.68A408,408,0,0,0,1116,882c-24.93-3.89-65.2-5-90-5.07-119-.24-236.25,29.52-354.59,46.65a621.7,621.7,0,0,1-169.84,6.78q-67.16-14.6-131.64-52.22c-50.65-25.25-101.3-50.89-152.29-73.72C145.86,772.28,73,757.28,0,755V2421H1280V945.78C1264.84,936.36,1249.46,927.21,1236.47,920.68Z" transform="translate(0 -7.98)"/></svg>